<svg xmlns="http://www.w3.org/2000/svg" viewBox="0 0 800 800" xml:space="preserve"><path fill="#EEE3D3" d="M364 801H1V1h800v800H364m219.117-233.314c6.409-.302 12.924-1.487 19.207-.735 16.889 2.021 33.287 1.491 48.727-6.438 16.069-8.252 27.334-21.666 37.236-36.204 15.162-22.262 25.843-46.896 36.67-71.422 1.41-3.19.525-5.454-2.596-6.928-3.63-1.715-4.893.44-6.15 3.378-10.62 24.84-22.59 48.982-37.403 71.639-7.746 11.847-16.67 22.497-29.475 29.218-8.283 4.347-17.035 6.809-26.634 6.3.19-.634.614-.855 1.029-1.093 33.58-19.328 42.37-55.927 36.647-89.093-2.561-14.847-10.902-27.404-18.19-40.299-8.796-15.564-17.001-31.3-17.625-49.836-.502-14.891 2.841-28.459 12.563-39.98 6.554-7.765 14.049-9.178 23.31-5.316 2.88 1.201 6.002 2.215 9.074 2.424 2.003.136 5.553-.952 5.876-2.165.64-2.407-.036-5.459-1.03-7.892-.573-1.4-2.73-2.772-4.35-3.021-7.342-1.131-14.809-2.933-22.115-2.508-15.321.893-26.29 10.051-35.919 21.253-15.38 17.894-25.472 38.952-36.184 59.646-13.314 25.72-26.476 51.518-39.872 77.195-1 1.916-3.165 4.098-5.119 4.485-7.119 1.408-12.034 5.49-15.707 11.354-4.595 7.337-7.575 15.416-7.377 24.04.14 6.16-2.234 10.451-6.32 14.41-2.75 2.666-5.038 5.941-8.122 8.101-5.396 3.778-10.876 7.974-16.981 10.084-12.21 4.22-21.214-2.276-22.221-15.186-.32-4.103-.13-8.366.615-12.411 4.074-22.12 12.885-42.661 21.966-63.02 25.794-57.824 54.848-114.025 86.282-168.955 20.172-35.25 41.508-69.836 62.368-104.691 1.737-2.901 3.83-5.588 5.654-8.223-6.922-.852-13.341-1.594-19.747-2.438-24.179-3.186-34.797 2.877-44.252 21.739-.745 1.487-1.51 2.965-2.235 4.463-21.943 45.408-43.861 90.828-65.847 136.215-2.961 6.114-6.258 12.064-9.467 18.22-4.695-2.125-8.954-4.39-13.442-6.027-27.947-10.197-54.456-5.78-79.608 8.752-28.403 16.409-49.722 40.055-66.26 67.976-8.208 13.86-14.341 28.948-22.525 42.825-4.734 8.03-10.67 16.001-17.838 21.81-15.168 12.29-33.662 6.628-41.273-11.33-1.594-3.763-1.476-7.052.105-10.955 10.117-24.979 20.23-49.968 29.71-75.192 5.085-13.53 9.138-27.468 13.21-41.353 2.548-8.687-1.686-14.336-10.734-14.11-5.013.127-10.31 1.298-14.904 3.31-10.579 4.634-16.32 14.113-20.649 24.123-13.325 30.822-15.973 62.95-10.69 95.92.406 2.539 1.039 5.617.038 7.716-12.303 25.805-26.167 50.636-47.088 70.705-7.155 6.864-15.387 11.729-25.68 11.804-9.614.071-14.676-4.344-15.539-13.875-.372-4.11-.579-8.484.402-12.424 3.972-15.955 7.669-32.045 12.893-47.607 8.205-24.441 17.916-48.382 22.975-73.8 2.938-14.761 4.975-29.588 2.671-44.629-.915-5.974-3.57-8.556-9.48-7.998-13.793 1.3-27.52 3.292-41.273 5.004 5.79 5.981 7.58 12.542 7.733 19.448.173 7.798.9 15.948-.971 23.35-3.693 14.61-8.869 28.858-13.713 43.16-2.439 7.203-2.378 8.031 4.627 11.809-.545 1.645-1.121 3.348-1.673 5.059-3.982 12.35-8.16 24.643-11.883 37.07-4.125 13.765-6.912 27.816-6.513 42.283.62 22.458 11.794 33.099 34.13 33.348 20.114.225 35.665-9.241 49.621-22.41 17.685-16.688 30.492-36.884 41.766-58.179.784-1.481 1.623-2.935 2.768-5 6.244 13.048 15.21 20.758 29.332 21.234 13.3.449 23.75-5.633 32.703-14.542-.392 10.701-1.234 20.995-1.006 31.266.2 9.05 2.36 17.812 8.046 25.308 14.573 19.215 44.025 23.31 64.568 8.335 7.204-5.252 14.091-11.39 19.694-18.284 9.327-11.477 17.504-23.889 26.159-35.912.882-1.226 1.718-2.485 3.145-4.554 0 12.018-1.323 22.982.27 33.506 3.517 23.248 18.136 35.078 40.82 34.838 12.072-.127 22.292-5.115 31.22-12.816 5.652-4.877 10.88-10.245 16.314-15.407.04.029.208.092.287.214.812 1.253 1.598 2.522 2.412 3.773 9.397 14.426 22.26 24.055 39.521 26.093 9.345 1.103 18.932.169 29.316.055z"/><path fill="#30A38E" d="M582.664 567.736c-9.931.064-19.518.998-28.863-.105-17.261-2.038-30.124-11.667-39.52-26.093-.815-1.25-1.601-2.52-2.413-3.773-.079-.122-.247-.185-.287-.214-5.434 5.162-10.662 10.53-16.314 15.407-8.928 7.701-19.148 12.689-31.22 12.816-22.684.24-37.303-11.59-40.82-34.838-1.593-10.524-.27-21.488-.27-33.506-1.427 2.069-2.263 3.328-3.145 4.554-8.655 12.023-16.832 24.435-26.16 35.912-5.602 6.894-12.489 13.032-19.693 18.284-20.543 14.975-49.995 10.88-64.568-8.335-5.685-7.496-7.845-16.257-8.046-25.308-.228-10.27.614-20.565 1.006-31.266-8.954 8.909-19.402 14.99-32.703 14.542-14.122-.476-23.088-8.186-29.332-21.233-1.145 2.064-1.984 3.518-2.768 5-11.274 21.294-24.081 41.49-41.766 58.177-13.956 13.17-29.507 22.636-49.62 22.411-22.337-.25-33.511-10.89-34.131-33.348-.4-14.467 2.388-28.518 6.513-42.282 3.724-12.428 7.901-24.72 11.883-37.071.552-1.711 1.128-3.414 1.673-5.06-7.005-3.777-7.066-4.605-4.627-11.807 4.844-14.303 10.02-28.55 13.713-43.161 1.87-7.402 1.144-15.552.97-23.35-.152-6.906-1.942-13.467-7.732-19.448 13.754-1.712 27.48-3.704 41.272-5.004 5.91-.558 8.566 2.024 9.481 7.998 2.304 15.04.267 29.868-2.67 44.63-5.06 25.417-14.771 49.358-22.976 73.799-5.224 15.562-8.921 31.652-12.893 47.607-.98 3.94-.774 8.314-.402 12.424.863 9.531 5.925 13.946 15.539 13.875 10.293-.075 18.525-4.94 25.68-11.804 20.92-20.069 34.785-44.9 47.088-70.705 1-2.1.368-5.177-.039-7.715-5.282-32.972-2.634-65.099 10.691-95.92 4.328-10.01 10.07-19.49 20.65-24.124 4.593-2.012 9.89-3.183 14.903-3.31 9.048-.226 13.282 5.423 10.734 14.11-4.072 13.885-8.125 27.822-13.21 41.353-9.48 25.224-19.593 50.213-29.71 75.192-1.581 3.903-1.7 7.192-.105 10.954 7.61 17.959 26.106 23.621 41.273 11.33 7.169-5.808 13.104-13.78 17.838-21.809 8.184-13.877 14.317-28.965 22.526-42.825 16.537-27.921 37.856-51.567 66.259-67.976 25.152-14.531 51.661-18.949 79.608-8.752 4.488 1.637 8.747 3.902 13.442 6.027 3.209-6.156 6.506-12.106 9.467-18.22 21.986-45.387 43.904-90.807 65.847-136.215.724-1.498 1.49-2.976 2.235-4.463 9.455-18.862 20.073-24.925 44.252-21.739 6.406.844 12.825 1.586 19.747 2.438-1.824 2.635-3.917 5.322-5.654 8.223-20.86 34.855-42.196 69.44-62.368 104.69-31.434 54.93-60.488 111.132-86.282 168.956-9.081 20.359-17.892 40.9-21.966 63.02-.745 4.045-.935 8.308-.615 12.411 1.007 12.91 10.01 19.406 22.22 15.186 6.106-2.11 11.586-6.306 16.982-10.084 3.084-2.16 5.372-5.435 8.122-8.1 4.086-3.96 6.46-8.251 6.32-14.41-.198-8.625 2.782-16.704 7.377-24.04 3.673-5.866 8.588-9.947 15.707-11.355 1.954-.387 4.12-2.57 5.119-4.485 13.396-25.677 26.558-51.476 39.872-77.195 10.712-20.694 20.803-41.752 36.184-59.646 9.629-11.202 20.598-20.36 35.92-21.253 7.305-.425 14.772 1.377 22.114 2.508 1.62.25 3.777 1.62 4.35 3.021.994 2.433 1.67 5.485 1.03 7.892-.323 1.213-3.873 2.3-5.876 2.165-3.072-.209-6.193-1.223-9.073-2.424-9.262-3.862-16.757-2.449-23.31 5.317-9.723 11.52-13.066 25.088-12.564 39.979.624 18.536 8.83 34.272 17.626 49.836 7.287 12.895 15.628 25.452 18.19 40.299 5.722 33.166-3.069 69.765-36.648 89.093-.415.238-.84.459-1.03 1.092 9.6.51 18.352-1.952 26.635-6.3 12.805-6.72 21.729-17.37 29.475-29.217 14.813-22.657 26.783-46.8 37.403-71.64 1.257-2.938 2.52-5.092 6.15-3.377 3.12 1.474 4.006 3.737 2.597 6.928-10.828 24.526-21.509 49.16-36.671 71.422-9.902 14.538-21.167 27.952-37.236 36.204-15.44 7.93-31.838 8.46-48.727 6.438-6.283-.752-12.798.433-19.66.785m-165.24-87.829a1472.353 1472.353 0 0 0 66.616-115.363c-8.628-7.323-18.33-8.52-28.515-6.944-12.25 1.895-22.381 8.399-31.692 16.078-38.212 31.517-65.49 70.985-83.857 116.747-5.181 12.907-8.609 26.29-6.13 40.434 2.533 14.457 12.429 20.282 25.367 13.522 8.548-4.466 17.257-10.157 23.371-17.422 12.39-14.718 23.064-30.879 34.84-47.052m129.52-.636c.409 1.136.624 2.4 1.265 3.385 1.945 2.99 4.794 5.62 5.907 8.864 1.313 3.831 1.39 8.146 1.639 12.274 1.191 19.784 7.542 36.406 26.78 45.675 3.65 1.758 6.317 1.595 9.52-.849 18.061-13.778 25.66-33.088 28.861-54.598 2.793-18.765-.668-37.124-4.384-55.446-3.502-17.266-7.007-34.543-9.877-51.919-1.016-6.152-.163-12.612-.163-18.931-22.335 35.689-40.94 73.21-59.549 111.545m23.694 78.623c2.023-1.458 2.044-1.486-.54-3.4-12.525-9.281-21.115-21.112-23.76-36.76-.458-2.707-.612-5.466-.988-8.966-6.038 6.101-8.787 12.91-10.016 20.354-2.507 15.173 8.156 28.318 23.495 29.038 3.65.172 7.321-.118 11.809-.266z"/><path fill="#EDE3D3" d="M417.227 480.21c-11.579 15.87-22.254 32.03-34.643 46.75-6.114 7.264-14.823 12.955-23.37 17.42-12.94 6.761-22.835.936-25.368-13.52-2.479-14.146.949-27.528 6.13-40.435 18.368-45.762 45.645-85.23 83.857-116.747 9.31-7.68 19.443-14.183 31.692-16.078 10.186-1.576 19.887-.38 28.515 6.944a1473.458 1473.458 0 0 1-66.813 115.667z"/><path fill="#EDE2D2" d="M547.083 478.937c18.468-38.001 37.074-75.522 59.41-111.211 0 6.319-.854 12.78.162 18.931 2.87 17.376 6.375 34.653 9.877 51.919 3.716 18.322 7.177 36.68 4.384 55.446-3.201 21.51-10.8 40.82-28.86 54.598-3.204 2.444-5.872 2.607-9.521.849-19.238-9.269-25.589-25.89-26.78-45.675-.249-4.128-.326-8.443-1.64-12.274-1.112-3.245-3.961-5.874-5.906-8.864-.64-.986-.856-2.249-1.126-3.719z"/><path fill="#EAE1D1" d="M570.224 557.93c-4.075.112-7.746.402-11.396.23-15.34-.72-26.002-13.865-23.495-29.038 1.23-7.443 3.978-14.253 10.016-20.354.376 3.5.53 6.259.988 8.966 2.645 15.648 11.235 27.479 23.76 36.76 2.584 1.914 2.563 1.942.127 3.436z"/></svg>
