<?xml version="1.0" encoding="UTF-8"?>
<svg version="1.1" xmlns="http://www.w3.org/2000/svg" width="1024" height="1024">
<path d="M0 0 C337.92 0 675.84 0 1024 0 C1024 337.92 1024 675.84 1024 1024 C686.08 1024 348.16 1024 0 1024 C0 686.08 0 348.16 0 0 Z " fill="#F7F7F6" transform="translate(0,0)"/>
<path d="M0 0 C3.18667563 1.0777822 6.37492969 2.15086241 9.56307983 3.22427368 C11.81049801 3.98456408 14.05430038 4.75481242 16.29788208 5.52633667 C31.03764679 10.55101615 44.73340464 14.35071891 60.45462036 13.76217651 C62.80724842 13.69361639 65.16013506 13.63326528 67.51321411 13.58248901 C68.52569214 13.5465564 69.53817017 13.51062378 70.58132935 13.47360229 C73.01712036 13.63717651 73.01712036 13.63717651 75.01712036 15.63717651 C74.76564548 21.04676276 73.19593838 24.62977979 70.40774536 29.21139526 C69.67457409 30.44243489 68.94350527 31.67472875 68.21438599 32.90817261 C67.84515015 33.52867493 67.47591431 34.14917725 67.0954895 34.78848267 C64.11649576 39.89549769 61.47195958 45.19429126 58.76712036 50.44967651 C58.28789124 51.38018829 58.28789124 51.38018829 57.79898071 52.32949829 C45.57282587 76.09670219 34.39748011 100.11393202 25.21243286 125.23873901 C24.53301636 127.09619751 24.53301636 127.09619751 23.83987427 128.99118042 C22.97582241 131.37282503 22.12091398 133.75781221 21.27639771 136.14645386 C20.89177368 137.21589233 20.50714966 138.28533081 20.11087036 139.38717651 C19.77764771 140.33077026 19.44442505 141.27436401 19.10110474 142.24655151 C17.99777702 144.67983641 17.14910941 146.04145465 15.01712036 147.63717651 C11.45462036 147.94967651 11.45462036 147.94967651 8.01712036 147.63717651 C5.23844036 144.85849651 5.76907192 142.29439053 5.70462036 138.57467651 C4.43838901 107.55877977 -6.16553957 78.60008329 -28.79147339 56.94967651 C-56.27404211 33.08421656 -93.71229746 20.61209914 -129.98287964 22.63717651 C-149.04153767 24.11110066 -167.25277625 31.04924875 -180.98287964 44.63717651 C-195.79302923 62.78190947 -200.39443586 82.61017208 -198.69772339 105.48092651 C-194.6989687 142.44029024 -170.39172459 173.49314872 -142.46725464 196.62155151 C-140.25564805 198.38465369 -138.01992464 200.10830808 -135.75534058 201.80270386 C-133.30902494 203.63726101 -130.87271605 205.48362278 -128.44577026 207.34371948 C-119.16139354 214.42625364 -109.6269443 221.0318162 -99.87738037 227.45553589 C-95.61411643 230.26498717 -91.36202302 233.09128626 -87.10787964 235.91452026 C-86.25395126 236.48056976 -85.40002289 237.04661926 -84.5202179 237.62982178 C-76.94233414 242.65537433 -69.39334849 247.72271642 -61.86425781 252.82104492 C-60.59662293 253.67931595 -59.32847861 254.53683518 -58.05975342 255.39349365 C-46.45189039 263.2324297 -34.98967425 271.27778669 -23.79537964 279.69967651 C-22.79015259 280.45571167 -22.79015259 280.45571167 -21.76461792 281.22702026 C-16.04547262 285.55101786 -10.47363528 290.0261986 -4.98287964 294.63717651 C-3.98901245 295.4454187 -2.99514526 296.25366089 -1.97116089 297.08639526 C14.75953365 310.85688841 31.07476307 326.46888221 43.01712036 344.63717651 C43.48118286 345.33729858 43.94524536 346.03742065 44.42337036 346.75875854 C57.07143156 366.07025145 65.94029481 386.23409118 70.76712036 408.82467651 C70.97820435 409.81040649 71.18928833 410.79613647 71.4067688 411.81173706 C73.97538071 424.47026988 74.22427912 437.08091625 74.20462036 449.94967651 C74.20368378 450.74330597 74.20274719 451.53693542 74.20178223 452.35461426 C74.14569289 474.35793626 71.9305857 495.15530256 67.01712036 516.63717651 C66.82247192 517.49295288 66.62782349 518.34872925 66.42727661 519.23043823 C58.45606199 553.48604588 43.14126331 585.31385997 21.01712036 612.63717651 C20.32618286 613.52018433 19.63524536 614.40319214 18.92337036 615.31295776 C14.34819599 621.0746046 9.46568302 626.50364074 4.45462036 631.88717651 C3.84142944 632.54886841 3.22823853 633.2105603 2.59646606 633.89230347 C-1.68997612 638.44704074 -6.21422204 642.59411929 -10.98287964 646.63717651 C-11.55852661 647.13491577 -12.13417358 647.63265503 -12.7272644 648.14547729 C-29.83074348 662.85915519 -48.91717297 675.34972798 -68.98287964 685.63717651 C-69.71716187 686.01922241 -70.45144409 686.40126831 -71.20797729 686.79489136 C-101.6221114 702.47113006 -137.50843129 711.66411535 -171.79147339 711.84030151 C-172.70751343 711.84731583 -173.62355347 711.85433014 -174.56735229 711.86155701 C-177.51841176 711.87900478 -180.46927044 711.88541209 -183.42037964 711.88717651 C-184.93294846 711.88818863 -184.93294846 711.88818863 -186.47607422 711.88922119 C-222.86070902 711.8505399 -258.26273252 706.30388872 -290.98287964 689.63717651 C-291.59824585 689.33199097 -292.21361206 689.02680542 -292.84762573 688.71237183 C-310.64143709 679.87271779 -328.78118498 667.5389221 -340.98287964 651.63717651 C-341.72537964 650.71549683 -342.46787964 649.79381714 -343.23287964 648.84420776 C-362.28193242 624.3509493 -370.14838821 595.41351244 -366.48678589 564.71139526 C-363.57592979 545.04499242 -354.63914425 524.25622045 -340.98287964 509.63717651 C-340.17463745 508.73869995 -339.36639526 507.84022339 -338.53366089 506.91452026 C-325.76407522 493.36198189 -308.41057725 483.05215735 -289.40866089 482.30123901 C-287.37107191 482.27177351 -285.33317962 482.25929533 -283.29537964 482.26217651 C-281.70560303 482.26241821 -281.70560303 482.26241821 -280.08370972 482.26266479 C-270.95447131 482.39555036 -262.74741421 483.46082013 -254.98287964 488.63717651 C-254.47897339 491.48873901 -254.47897339 491.48873901 -254.98287964 494.63717651 C-257.14303589 496.91061401 -257.14303589 496.91061401 -260.04537964 499.01217651 C-273.44752058 509.38084054 -280.89292188 522.96161936 -283.98287964 539.63717651 C-284.16205933 540.36807495 -284.34123901 541.09897339 -284.52584839 541.85202026 C-288.64659151 566.96389926 -281.57700324 594.21643701 -267.09616089 614.88327026 C-263.6456615 619.37976207 -259.90434692 623.54916043 -255.98287964 627.63717651 C-255.13725464 628.52405151 -254.29162964 629.41092651 -253.42037964 630.32467651 C-252.61600464 631.08780151 -251.81162964 631.85092651 -250.98287964 632.63717651 C-250.47112183 633.13217651 -249.95936401 633.62717651 -249.43209839 634.13717651 C-229.43074059 652.63950321 -203.53886039 662.50872572 -176.98287964 666.63717651 C-175.18463745 666.91754761 -175.18463745 666.91754761 -173.35006714 667.20358276 C-133.46632229 671.97921259 -96.68653703 662.17215132 -64.90475464 637.96530151 C-60.40992923 634.38386309 -56.16071493 630.58128675 -51.98287964 626.63717651 C-51.36928589 626.06483276 -50.75569214 625.49248901 -50.12350464 624.90280151 C-28.34755917 603.92597331 -14.47114795 575.88405176 -7.48678589 546.73727417 C-7.02084657 544.79540887 -6.51904056 542.86224393 -6.01412964 540.93014526 C1.93119454 505.21297036 -5.54577758 466.30068331 -22.98287964 434.63717651 C-23.54748901 433.58272339 -24.11209839 432.52827026 -24.69381714 431.44186401 C-31.71453359 418.81775885 -41.00016765 408.00139342 -50.98287964 397.63717651 C-51.81142456 396.7757605 -51.81142456 396.7757605 -52.65670776 395.89694214 C-59.22662748 389.10680165 -65.87297417 382.62562147 -73.29928589 376.76217651 C-76.10954532 374.53687647 -78.82227407 372.21806523 -81.54537964 369.88717651 C-86.48762326 365.76437225 -91.5817186 361.91011085 -96.79537964 358.13717651 C-97.48124146 357.63992065 -98.16710327 357.14266479 -98.87374878 356.63034058 C-106.11571292 351.44410086 -113.55692892 346.55392478 -120.98287964 341.63717651 C-122.33420251 340.7421638 -123.68552086 339.84714425 -125.03683472 338.95211792 C-125.71152298 338.5053067 -126.38621124 338.05849548 -127.0813446 337.59814453 C-129.85171888 335.76273229 -132.6208161 333.92539928 -135.38961792 332.08761597 C-136.7843017 331.16286937 -138.17980965 330.23936456 -139.57614136 329.31710815 C-149.0613114 323.05016037 -158.33192113 316.56357779 -167.45108032 309.77484131 C-169.36939492 308.35011226 -171.30116375 306.94452643 -173.23678589 305.54342651 C-181.64430159 299.43617206 -189.87029334 293.13070086 -197.98287964 286.63717651 C-198.95096558 285.86502808 -199.91905151 285.09287964 -200.91647339 284.29733276 C-206.60638504 279.70504946 -212.06557787 274.91491327 -217.43991089 269.95748901 C-219.53994898 268.04132522 -221.6760328 266.20766926 -223.85787964 264.38717651 C-245.6750415 245.34186719 -260.90660126 220.58625672 -270.98287964 193.63717651 C-271.61129761 191.96848511 -271.61129761 191.96848511 -272.25241089 190.26608276 C-284.45261338 154.39657357 -277.89954104 115.26943967 -261.73287964 81.94967651 C-246.67587137 51.79271008 -223.39403798 26.07101071 -195.98287964 6.63717651 C-195.36912476 6.18938843 -194.75536987 5.74160034 -194.12301636 5.28024292 C-134.67353667 -38.0129095 -64.52492688 -21.84625037 0 0 Z " fill="#349592" transform="translate(633.9828796386719,143.36282348632813)"/>
<path d="M0 0 C1.38518578 -0.00845947 1.38518578 -0.00845947 2.7983551 -0.01708984 C4.32314484 -0.01101715 4.32314484 -0.01101715 5.8787384 -0.00482178 C7.48163475 -0.01007874 7.48163475 -0.01007874 9.11691284 -0.01544189 C12.6701548 -0.02428326 16.22319928 -0.01839616 19.77644348 -0.01165771 C22.24871865 -0.01300496 24.72099356 -0.014946 27.19326782 -0.01745605 C33.05795111 -0.02079075 38.92256277 -0.01376915 44.78723556 -0.00315452 C50.74857567 0.00641474 56.70983112 -0.00309831 62.67116833 -0.01391983 C67.78706054 -0.02119299 72.90291493 -0.01882427 78.01880836 -0.01366425 C80.45977612 -0.01233875 82.90074742 -0.01393648 85.34171104 -0.01862335 C112.05338075 -0.05860612 137.75592851 1.26702634 158.22566223 20.68365479 C173.10578228 36.73466953 178.55088529 57.17084637 177.88972473 78.67584229 C176.67071622 102.46682499 168.47919094 123.9372264 150.60847473 140.25396729 C143.60819919 146.02328473 135.83635102 150.47884865 127.60847473 154.25396729 C132.07515524 167.64959247 137.15534343 180.5498352 143.04597473 193.37896729 C143.83562481 195.11371863 144.62484156 196.84866729 145.41365051 198.58380127 C147.7965843 203.81429388 150.20012425 209.03513899 152.60847473 214.25396729 C152.97640137 215.05276306 153.344328 215.85155884 153.72340393 216.67456055 C172.27982903 263.51516116 172.27982903 263.51516116 209.60847473 293.25396729 C209.65101829 295.25351475 209.64928256 297.25438365 209.60847473 299.25396729 C207.70510561 301.15733641 204.33645698 300.49835974 201.80378723 300.57037354 C201.10085037 300.59142654 200.39791351 300.61247955 199.67367554 300.63417053 C197.36039745 300.70119019 195.04703189 300.75993561 192.73347473 300.81646729 C191.94880829 300.8359845 191.16414185 300.85550171 190.35569763 300.87561035 C186.33055223 300.97408643 182.30531647 301.06512659 178.27986145 301.14996338 C175.32004869 301.21313869 172.36105221 301.28763513 169.40193176 301.37750244 C165.69999458 301.48601625 161.99886935 301.56239083 158.29597473 301.62896729 C157.19592102 301.6670752 156.09586731 301.70518311 154.96247864 301.7444458 C150.16362374 301.79559418 147.36768646 301.69319486 143.15144348 299.25396729 C140.09766576 295.65135394 138.16587492 292.16617354 136.23347473 287.87896729 C135.82411682 286.99467041 135.41475891 286.11037354 134.99299622 285.19927979 C124.92258391 263.04327949 116.00145475 240.30768721 107.49299622 217.51324463 C104.39514187 209.23466822 101.10700444 201.04875649 97.73347473 192.87896729 C87.60847473 168.31921598 87.60847473 168.31921598 87.60847473 163.25396729 C86.94847473 163.58396729 86.28847473 163.91396729 85.60847473 164.25396729 C83.86803303 164.33846357 82.12437751 164.36119752 80.38191223 164.35162354 C79.35066223 164.34840088 78.31941223 164.34517822 77.25691223 164.34185791 C76.17667786 164.333479 75.09644348 164.3251001 73.98347473 164.31646729 C72.35152161 164.30969971 72.35152161 164.30969971 70.68659973 164.30279541 C67.99383684 164.29098505 65.30118285 164.27451507 62.60847473 164.25396729 C62.6457032 178.58855833 62.70591583 192.92289637 62.79237747 207.25727844 C62.83185973 213.91358821 62.8640447 220.56971288 62.87947083 227.22613525 C62.89463213 233.65184778 62.9290694 240.07719621 62.97678375 246.50274658 C62.99160278 248.95225863 62.99951604 251.40182266 63.00035858 253.85137939 C63.00272828 257.28674992 63.02981058 260.72111428 63.06257629 264.15631104 C63.05754593 265.1654808 63.05251556 266.17465057 63.04733276 267.21440125 C63.1373322 273.32722939 63.98636722 278.19895159 67.60847473 283.25396729 C73.43948926 287.68280237 80.45240049 289.85411253 87.64753723 290.83209229 C89.60847473 291.25396729 89.60847473 291.25396729 91.60847473 293.25396729 C91.85847473 295.75396729 91.85847473 295.75396729 91.60847473 298.25396729 C89.01356448 300.84887754 87.24602126 300.48987889 83.71157837 300.50280762 C82.88655319 300.49561707 82.06152802 300.48842651 81.21150208 300.48101807 C79.90896233 300.48145615 79.90896233 300.48145615 78.58010864 300.48190308 C75.70144255 300.48050646 72.82303327 300.46492971 69.94441223 300.44927979 C67.95187013 300.44555083 65.9593262 300.44270331 63.96678162 300.44070435 C58.71584534 300.4330586 53.46501925 300.41340205 48.21412659 300.39129639 C42.85861197 300.37085819 37.50307959 300.36170697 32.14753723 300.35162354 C21.63446792 300.33015704 11.12148048 300.29600977 0.60847473 300.25396729 C0.60847473 296.62396729 0.60847473 292.99396729 0.60847473 289.25396729 C2.13472473 288.57334229 3.66097473 287.89271729 5.23347473 287.19146729 C11.30965954 284.13616189 15.35239307 280.7806309 17.66555786 274.286026 C18.99378909 269.457509 18.88011879 264.67813458 18.85139465 259.70196533 C18.85325901 258.65285603 18.85512337 257.60374672 18.85704422 256.52284622 C18.86068191 253.02038709 18.84988241 249.51812773 18.83894348 246.01568604 C18.83825469 243.51027943 18.83836007 241.0048725 18.83920288 238.49946594 C18.83853884 232.42520784 18.82805182 226.35104281 18.81206089 220.27681166 C18.79910198 215.3515153 18.78934232 210.4262229 18.7816925 205.50091553 C18.75611998 189.47686278 18.71266123 173.45293106 18.65439796 157.42896461 C18.62054198 148.07887175 18.59357663 138.72878574 18.5710696 129.37865913 C18.53715387 115.41868422 18.4782252 101.45903661 18.39793396 87.49923706 C18.36980711 82.51467319 18.35037823 77.53019073 18.33830261 72.54556274 C18.32343985 66.69301209 18.2893671 60.84088483 18.24035454 54.98852348 C18.22558167 52.85500095 18.21742678 50.72142025 18.21653938 48.58784676 C18.78817424 32.65039163 18.78817424 32.65039163 12.23243713 18.67407227 C7.11713843 14.0411642 1.13276371 12.04494857 -5.39152527 10.25396729 C-6.39152527 9.25396729 -6.39152527 9.25396729 -6.57902527 5.81646729 C-6.3056309 0.62197432 -4.79291078 0.00449179 0 0 Z " fill="#CAE2DD" transform="translate(721.3915252685547,297.74603271484375)"/>
<path d="M0 0 C0.68885808 -0.00297112 1.37771615 -0.00594224 2.08744872 -0.0090034 C4.41285425 -0.01772645 6.73820852 -0.01920167 9.06362915 -0.02069092 C10.72391369 -0.02531654 12.38419716 -0.03034085 14.04447937 -0.03573608 C18.56720421 -0.04888667 23.08991418 -0.0553102 27.61265516 -0.05974674 C30.43539221 -0.06267317 33.25812515 -0.06677714 36.08086014 -0.07125092 C44.90415471 -0.0849328 53.72743996 -0.09459609 62.55074441 -0.09845281 C72.7515342 -0.10293554 82.95219013 -0.12049049 93.1529392 -0.1494534 C101.02725387 -0.17103825 108.90153078 -0.18115537 116.77587473 -0.18249393 C121.48373655 -0.18354425 126.19147265 -0.18950005 130.89930344 -0.20731354 C135.326658 -0.22373913 139.75379161 -0.22597673 144.1811657 -0.21717453 C145.8085953 -0.21640119 147.43603651 -0.22078579 149.06343651 -0.23063278 C151.28059463 -0.24326424 153.49695975 -0.2375244 155.71411133 -0.22705078 C156.95631124 -0.22851734 158.19851116 -0.2299839 159.4783535 -0.2314949 C162.48403931 0.14044189 162.48403931 0.14044189 164.38377094 1.47128677 C166.19066397 4.21242235 165.85796629 6.8061712 165.85635376 10.04278564 C165.86000443 10.74066193 165.86365509 11.43853821 165.86741638 12.15756226 C165.87552293 14.46460296 165.86191159 16.77094148 165.84732056 19.07794189 C165.84680196 20.68072509 165.84731965 22.28350893 165.84883118 23.8862915 C165.84874145 27.24551895 165.83831109 30.60450642 165.82022095 33.96368408 C165.79753367 38.27141899 165.79698958 42.57880321 165.80373859 46.88658142 C165.80707875 50.19625978 165.80044763 53.50585806 165.79060936 56.81552124 C165.78675786 58.40395692 165.78560894 59.99240151 165.78719521 61.58084106 C165.78756572 63.80009965 165.77494986 66.01890725 165.75869751 68.23809814 C165.75409012 69.50145996 165.74948273 70.76482178 165.74473572 72.06646729 C165.48403931 75.14044189 165.48403931 75.14044189 163.48403931 78.14044189 C161.53872681 78.43341064 161.53872681 78.43341064 159.35903931 78.32794189 C158.08028931 78.26606689 156.80153931 78.20419189 155.48403931 78.14044189 C154.3478501 74.32755468 153.32575122 70.53154094 152.47622681 66.64434814 C150.57289144 58.10088945 148.41704191 50.05689405 144.48403931 42.20294189 C144.16419067 41.55978027 143.84434204 40.91661865 143.51480103 40.25396729 C138.97905241 31.68911066 131.75386226 26.36021734 122.67153931 23.39044189 C113.9797262 21.09461202 104.94806666 20.99317472 96.00357056 20.82403564 C95.06470505 20.80325455 94.12583954 20.78247345 93.15852356 20.76106262 C90.20459203 20.69648142 87.2505836 20.63711456 84.29653931 20.57794189 C82.27504747 20.53466936 80.25356297 20.49105254 78.23208618 20.44708252 C73.31614626 20.3408961 68.40013022 20.23938089 63.48403931 20.14044189 C63.48633041 20.85270432 63.48862152 21.56496674 63.49098206 22.29881287 C63.55135104 44.47846593 63.37423779 66.65265085 63.11172485 88.83062744 C63.05562053 93.592638 63.00584247 98.35469487 62.95732212 103.11678791 C62.91854305 106.82012446 62.87544088 110.5234013 62.83109856 114.22667503 C62.81076178 115.98617975 62.79203485 117.74570385 62.77496529 119.5052433 C62.75100627 121.93230647 62.72097301 124.35922001 62.68936157 126.78619385 C62.68360611 127.5064122 62.67785065 128.22663055 62.67192078 128.96867371 C62.59819093 133.91213865 62.59819093 133.91213865 61.48403931 136.14044189 C73.33261663 135.75987654 85.17213847 135.30020169 96.98403931 134.26544189 C97.82410522 134.19921631 98.66417114 134.13299072 99.5296936 134.0647583 C105.36120243 133.51362931 111.34052454 132.58920988 116.09463501 128.88580322 C117.93039977 126.57972656 118.51331914 124.43225531 119.30825806 121.59747314 C119.6144104 120.52432861 119.92056274 119.45118408 120.23599243 118.34552002 C120.5447229 117.22596924 120.85345337 116.10641846 121.17153931 114.95294189 C121.49187134 113.82178955 121.81220337 112.69063721 122.14224243 111.52520752 C122.93170047 108.732647 123.71189793 105.93783058 124.48403931 103.14044189 C127.12403931 103.14044189 129.76403931 103.14044189 132.48403931 103.14044189 C134.0719277 106.31621868 133.631294 109.74268349 133.62930298 113.23028564 C133.63266159 114.06617218 133.6360202 114.90205872 133.63948059 115.76327515 C133.64900369 118.53484571 133.65093427 121.30635597 133.65200806 124.07794189 C133.65521927 125.99843369 133.65858323 127.91892523 133.66209412 129.8394165 C133.66808849 133.86782397 133.66993366 137.89620997 133.66934204 141.92462158 C133.6692403 147.09673108 133.68290305 152.26870364 133.70011425 157.44078064 C133.71120936 161.40749753 133.71326203 165.37418104 133.71273232 169.34091187 C133.71391579 171.24836703 133.71835801 173.15582297 133.72606468 175.06326294 C133.73581618 177.72580689 133.73300603 180.38804979 133.72695923 183.05059814 C133.73257874 183.84442902 133.73819824 184.63825989 133.74398804 185.45614624 C133.71235598 190.91212522 133.71235598 190.91212522 131.48403931 193.14044189 C128.35903931 193.26544189 128.35903931 193.26544189 125.48403931 193.14044189 C123.88796544 188.98686094 122.36014768 184.84063531 121.01919556 180.59747314 C120.77620728 179.83370361 120.53321899 179.06993408 120.28286743 178.28302002 C119.78896484 176.72008688 119.30206051 175.1549262 118.82192993 173.58770752 C116.89269411 167.58620612 114.93693405 163.41231324 109.10903931 160.39044189 C103.07185249 158.30865334 97.12770345 157.91875744 90.80435181 157.60528564 C89.99158783 157.5623085 89.17882385 157.51933136 88.34143066 157.47505188 C85.76412142 157.33949785 83.18659844 157.20864927 80.60903931 157.07794189 C78.85381471 156.98645648 77.09860615 156.89466285 75.34341431 156.80255127 C71.05713333 156.57828084 66.77065445 156.35822807 62.48403931 156.14044189 C62.56808859 171.10961291 62.66327647 186.07868265 62.77156639 201.04769802 C62.82159519 207.99875649 62.86803882 214.94980375 62.90591431 221.90093994 C62.94249108 228.61185317 62.98922828 235.32262605 63.04210281 242.03343391 C63.06060455 244.59098167 63.075728 247.14855621 63.08738327 249.70614433 C63.10431775 253.29431797 63.1333708 256.88220757 63.16519165 260.47027588 C63.16735184 261.52260406 63.16951202 262.57493225 63.17173767 263.65914917 C63.1194644 274.8355985 63.1194644 274.8355985 68.10903931 284.39044189 C73.02525245 288.16163958 79.25447196 289.51695788 85.13247681 291.15997314 C88.48403931 292.14044189 88.48403931 292.14044189 89.48403931 293.14044189 C89.60903931 295.64044189 89.60903931 295.64044189 89.48403931 298.14044189 C87.61948585 300.00499536 84.94997583 299.26702875 82.46882629 299.27597046 C81.60437393 299.27394623 80.73992157 299.271922 79.84927368 299.26983643 C78.94365189 299.27158875 78.03803009 299.27334106 77.10496521 299.27514648 C74.09588738 299.27956643 71.08686779 299.27662651 68.07778931 299.27325439 C65.99653105 299.27392739 63.91527288 299.27489738 61.83401489 299.27615356 C57.46588393 299.27763073 53.09777337 299.27547538 48.72964478 299.27081299 C43.11689378 299.26511569 37.50419059 299.2683946 31.89144135 299.27438545 C27.59192542 299.27799056 23.29242092 299.27685271 18.99290466 299.27425766 C16.92274469 299.27358825 14.8525837 299.2744173 12.78242493 299.27673721 C9.89452344 299.27926291 7.00670053 299.27542432 4.11880493 299.26983643 C3.25435257 299.27186066 2.38990021 299.27388489 1.49925232 299.27597046 C-4.40169832 299.25470427 -4.40169832 299.25470427 -5.51596069 298.14044189 C-5.89096069 295.26544189 -5.89096069 295.26544189 -5.51596069 292.14044189 C-3.25444679 290.18046318 -0.98791263 289.29828273 1.83169556 288.35528564 C8.4130369 286.06223911 12.29993726 283.45904938 15.48403931 277.14044189 C18.9662771 269.4268388 18.88955686 261.89578726 18.81216431 253.56622314 C18.80946146 252.0887265 18.80802053 250.61122711 18.807724 249.13372803 C18.8027749 245.09155372 18.77836626 241.04970352 18.75014114 237.00763321 C18.72840459 233.55894671 18.71775563 230.11026042 18.70704365 226.66152477 C18.66759708 214.15423251 18.57914293 201.64741502 18.48403931 189.14044189 C18.46841685 187.03464776 18.45281239 184.92885348 18.43722534 182.82305908 C18.24269371 156.80702133 17.98947691 130.79199114 17.67901611 104.77708435 C17.55062949 93.89796366 17.4494504 83.01943822 17.39527893 72.13969421 C17.36653536 66.45672293 17.31606995 60.77400758 17.26306152 55.09121704 C17.24398354 52.57631396 17.23325874 50.06133111 17.23162842 47.5463562 C17.228601 44.18387638 17.19608024 40.82296338 17.15591431 37.46075439 C17.16301926 36.51380203 17.17012421 35.56684967 17.17744446 34.59120178 C17.03048235 26.76883192 14.25269967 22.04415887 8.92153931 16.45294189 C5.08456678 13.47423954 0.48580162 11.90127448 -4.00424194 10.15606689 C-6.51596069 9.14044189 -6.51596069 9.14044189 -7.51596069 8.14044189 C-7.64096069 4.64044189 -7.64096069 4.64044189 -7.51596069 1.14044189 C-5.64732117 -0.72819763 -2.4911157 0.00596903 0 0 Z " fill="#CAE2DD" transform="translate(105.51596069335938,298.85955810546875)"/>
<path d="M0 0 C6.65688996 -0.04933278 13.31367418 -0.08568755 19.97070312 -0.10986328 C22.23667249 -0.11993859 24.50262881 -0.13359918 26.76855469 -0.15087891 C30.02021501 -0.17506011 33.27170387 -0.18646763 36.5234375 -0.1953125 C38.05005508 -0.21079636 38.05005508 -0.21079636 39.60751343 -0.22659302 C40.54833771 -0.22674408 41.48916199 -0.22689514 42.45849609 -0.22705078 C43.28900482 -0.231492 44.11951355 -0.23593323 44.97518921 -0.24050903 C47 0 47 0 49 2 C49.40722656 3.83740234 49.40722656 3.83740234 49.640625 6.0859375 C49.73819092 6.92390869 49.83575684 7.76187988 49.9362793 8.62524414 C50.03980713 9.53266357 50.14333496 10.44008301 50.25 11.375 C52.60985072 29.53045004 58.81051492 46.24321573 66 63 C66.40734375 63.96164062 66.8146875 64.92328125 67.234375 65.9140625 C77.25629024 87.62821218 99.10623716 115.89560986 120.00927734 128.1809082 C122.86724993 130.79247967 123.57032863 133.8805934 124.59375 137.49609375 C124.82194931 138.26051788 125.05014862 139.02494202 125.28526306 139.81253052 C126.03800269 142.35016623 126.76924313 144.89345462 127.5 147.4375 C128.02272397 149.21825111 128.54625693 150.99876493 129.07055664 152.77905273 C133.56849548 168.14443304 137.78711545 183.59037986 141.90234375 199.06225586 C145.00337261 215.59873875 145.00337261 215.59873875 152 230 C152.47308594 228.86046875 152.94617188 227.7209375 153.43359375 226.546875 C159.88218139 211.0841326 166.71510679 195.80613904 173.80859375 180.62890625 C174.94940152 178.11164846 175.99550877 175.57430078 177 173 C181.67105792 174.55701931 185.08705685 177.08447373 189 180 C187.51249804 188.4787612 184.31513015 196.10781068 181 204 C180.61666504 204.91990723 180.23333008 205.83981445 179.83837891 206.78759766 C174.12304799 220.49506251 168.2305353 234.11645559 162.14794922 247.66503906 C156.5553501 260.14128045 151.47184171 272.78065732 146.57592773 285.54541016 C145.86396967 287.39929497 145.14498645 289.25047712 144.42578125 291.1015625 C144.00723877 292.18775879 143.58869629 293.27395508 143.1574707 294.39306641 C142 297 142 297 140 299 C137.31160615 299.26991906 134.70858064 299.08737357 132 299 C127.27046923 290.39486321 124.07523859 281.35053339 120.8125 272.125 C120.23779528 270.5147697 119.66251068 268.90474626 119.08666992 267.29492188 C117.92931078 264.05623641 116.77545501 260.81633965 115.625 257.57519531 C114.18343883 253.51397975 112.7340582 249.45564364 111.28125 245.3984375 C109.6515088 240.8462704 108.02503483 236.2929663 106.40234375 231.73828125 C104.75298575 227.10913267 103.09896229 222.48168819 101.44140625 217.85546875 C100.58581851 215.46618844 99.7303492 213.07686572 98.875 210.6875 C98.45710205 209.52041504 98.0392041 208.35333008 97.60864258 207.15087891 C95.35551812 200.8439028 93.13975021 194.52609937 90.96728516 188.19091797 C85.2066368 171.42077205 78.80721707 154.91136212 72.15625 138.4765625 C70.76977275 135.04730257 69.38430217 131.61763854 68 128.1875 C67.65540741 127.33379822 67.31081482 126.48009644 66.95578003 125.6005249 C60.76725508 110.23391622 55.16838375 94.73882386 50 79 C49.67 78.01 49.34 77.02 49 76 C48.92642617 106.00010575 48.93024912 135.99988496 49 166 C49.00254036 167.13774368 49.00508072 168.27548737 49.00769806 169.44770813 C49.03950988 183.25865648 49.0906397 197.06928032 49.18551159 210.87995148 C49.22352913 216.41473118 49.25535293 221.9493597 49.27072144 227.48425293 C49.28571219 232.71864516 49.31982098 237.95257732 49.36824608 243.18676376 C49.38292136 245.10842852 49.39103597 247.030157 49.39190102 248.95187759 C49.06671005 265.6922538 49.06671005 265.6922538 56.02325439 280.41647339 C61.1802364 285.52738197 67.29818673 288.39443521 74 291 C74.125 296.75 74.125 296.75 73 299 C63.36887288 299.02312465 53.73775526 299.04091571 44.10660648 299.05181217 C39.63494451 299.05704074 35.16330147 299.06413789 30.69165039 299.07543945 C26.37988027 299.08626929 22.06812841 299.09227704 17.75634575 299.09487724 C16.10763702 299.09673132 14.45892934 299.1003516 12.81022835 299.10573006 C10.50896128 299.11294178 8.2077706 299.11399089 5.90649414 299.11352539 C4.5941127 299.115746 3.28173126 299.11796661 1.92958069 299.12025452 C-1 299 -1 299 -2 298 C-2.3125 295.625 -2.3125 295.625 -2 293 C0.70006924 290.56320282 3.33491447 289.40286327 6.75 288.25 C13.69614604 285.53506092 18.76844661 281.83904571 22.07400513 275.06137085 C24.43489198 269.6084541 24.60011213 264.62732952 24.60498047 258.74853516 C24.62122593 257.65927608 24.63747139 256.57001701 24.65420914 255.44775009 C24.70261174 251.85312484 24.72279905 248.25895227 24.7421875 244.6640625 C24.76961294 242.11177077 24.79843788 239.55949373 24.82858276 237.00723267 C24.91524939 229.00488175 24.96034727 221.00268475 25 213 C25.01458432 210.48693787 25.02927118 207.97387632 25.04406738 205.46081543 C25.13275796 189.37725955 25.14707142 173.29407467 25.12917709 157.2103157 C25.12492411 153.30532098 25.12200532 149.40032689 25.11929321 145.49533081 C25.09864794 101.98969936 25.09864794 101.98969936 24.73553467 58.48590088 C24.70393064 55.90453077 24.6766703 53.3231032 24.65411377 50.74163818 C24.62165685 47.30781093 24.57028101 43.87487387 24.51171875 40.44140625 C24.50531876 39.49106003 24.49891876 38.54071381 24.49232483 37.56156921 C24.32511535 30.14004721 22.89046467 23.9225562 18.83203125 17.6484375 C15.34659088 14.38894982 12.1627822 13.08876522 7.6875 11.625 C6.94693359 11.36589844 6.20636719 11.10679687 5.44335938 10.83984375 C3.63468467 10.20972482 1.81807353 9.60246385 0 9 C0 6.03 0 3.06 0 0 Z " fill="#CAE2DD" transform="translate(294,299)"/>
<path d="M0 0 C0.02545231 5.59285174 0.04319862 11.18566708 0.05493164 16.77856445 C0.05984214 18.66594024 0.06656917 20.5533125 0.07543945 22.44067383 C0.12752957 33.84228129 -0.04517744 45.20819507 -0.4921875 56.6015625 C-1.10942256 72.6810086 -1.18753232 88.75013373 -1.18530273 104.83959961 C-1.18519866 108.95159648 -1.19915819 113.06342999 -1.21607494 117.17538738 C-1.22713484 120.37771908 -1.22922427 123.58000932 -1.22869301 126.78235817 C-1.22987032 128.3018535 -1.23427811 129.82135 -1.24202538 131.34082603 C-1.2517577 133.43526976 -1.24898119 135.52933021 -1.24291992 137.6237793 C-1.24434494 138.8109404 -1.24576996 139.9981015 -1.24723816 141.22123718 C-1.28699622 144.1407756 -1.28699622 144.1407756 1 146 C3.89223503 146.46396693 3.89223503 146.46396693 7.125 146.625 C8.22070312 146.69976563 9.31640625 146.77453125 10.4453125 146.8515625 C11.70988281 146.92503906 11.70988281 146.92503906 13 147 C13.495 149.475 13.495 149.475 14 152 C8.09855632 154.26926183 2.16377345 156.31483289 -3.875 158.1875 C-5.12603516 158.59645508 -5.12603516 158.59645508 -6.40234375 159.01367188 C-12.12664692 160.77873908 -18.01072943 162.10466321 -24 161 C-26.88298126 158.86100087 -26.995848 158.02226982 -27.6875 154.3125 C-27.790625 153.219375 -27.89375 152.12625 -28 151 C-28.60473145 151.29245605 -29.20946289 151.58491211 -29.83251953 151.88623047 C-32.59489529 153.21955409 -35.35990887 154.54731736 -38.125 155.875 C-39.07632813 156.33519531 -40.02765625 156.79539062 -41.0078125 157.26953125 C-52.81159988 162.9255127 -63.47518841 165.32792857 -76.4375 161.375 C-87.59372275 157.09794946 -95.96518864 148.61914355 -100.93359375 137.796875 C-107.63347531 120.22502446 -107.41762917 97.693292 -99.74291992 80.48779297 C-93.11793758 66.74584647 -82.35745074 57.07004681 -68 52 C-62.33969373 50.35993218 -57.1953442 49.60906605 -51.3125 49.5625 C-50.59900391 49.52962891 -49.88550781 49.49675781 -49.15039062 49.46289062 C-41.83115365 49.3922044 -35.64525581 52.15221744 -29 55 C-28.87599965 50.67677539 -28.78547744 46.35450398 -28.7253418 42.0300293 C-28.70026356 40.56044475 -28.66619144 39.09098413 -28.62280273 37.62182617 C-28.56184501 35.50408319 -28.53372684 33.38799424 -28.51171875 31.26953125 C-28.48553467 29.99698486 -28.45935059 28.72443848 -28.43237305 27.41333008 C-29.14916186 23.10304 -30.65075511 21.70668606 -34 19 C-36.6210202 17.5942211 -36.6210202 17.5942211 -39.3125 16.6875 C-40.19550781 16.36136719 -41.07851563 16.03523437 -41.98828125 15.69921875 C-42.65214844 15.46847656 -43.31601562 15.23773437 -44 15 C-44 13.35 -44 11.7 -44 10 C-37.25907874 7.18718249 -30.54120687 5.77064999 -23.375 4.4375 C-15.70506504 2.99380012 -7.73507678 -0.17502728 0 0 Z " fill="#359592" transform="translate(549,537)"/>
<path d="M0 0 C10.94341684 6.58505852 17.92685948 15.87244026 22.1484375 27.89453125 C22.88425829 30.89321738 23.38382148 33.9038527 23.8359375 36.95703125 C24.02373779 38.21265869 24.02373779 38.21265869 24.21533203 39.49365234 C27.00139586 59.31450642 24.59576216 81.4576602 13.1171875 98.359375 C5.00910993 108.80013361 -5.76960752 114.20504846 -18.4140625 117.26953125 C-19.06624756 117.43743164 -19.71843262 117.60533203 -20.39038086 117.77832031 C-29.03551691 119.64852145 -38.0590739 119.02587133 -46.8515625 118.89453125 C-46.8822803 107.74870818 -46.90258075 96.60288989 -46.9140625 85.45703125 C-46.91491852 84.63193684 -46.91577454 83.80684242 -46.91665649 82.95674515 C-46.94295315 54.25705834 -46.64018514 25.58487472 -45.8515625 -3.10546875 C-32.92247592 -7.41516428 -12.15234191 -5.62803687 0 0 Z " fill="#F7F7F6" transform="translate(830.8515625,323.10546875)"/>
<path d="M0 0 C0.98436035 0.00142502 1.9687207 0.00285004 2.98291016 0.00431824 C4.09746582 0.00124161 5.21202148 -0.00183502 6.36035156 -0.00500488 C8.172854 0.00577339 8.172854 0.00577339 10.02197266 0.01676941 C11.25737793 0.01722763 12.4927832 0.01768585 13.765625 0.01815796 C17.05289495 0.02195979 20.33997278 0.03497908 23.62719727 0.05162048 C26.97233332 0.06506491 30.3174355 0.06189636 33.66259766 0.06169128 C36.19905799 0.06660714 38.73551676 0.07243575 41.27197266 0.07926941 C43.0844751 0.08093864 43.0844751 0.08093864 44.93359375 0.0826416 C46.04814941 0.08902145 47.16270508 0.09540131 48.31103516 0.10197449 C49.29539551 0.10578629 50.27975586 0.10959808 51.29394531 0.11352539 C53.64697266 0.24723816 53.64697266 0.24723816 55.64697266 1.24723816 C55.93994141 7.30192566 55.93994141 7.30192566 55.64697266 9.24723816 C52.97052934 11.0315337 51.33905197 11.7138894 48.33447266 12.55973816 C42.71019372 14.38877196 39.11699569 16.78849225 36.00518799 21.99327087 C34.49888092 25.60203144 34.27831512 28.10170542 34.29052734 31.99821472 C34.28848297 32.64673401 34.2864386 33.2952533 34.28433228 33.96342468 C34.28133118 36.1051937 34.29983577 38.24618526 34.31884766 40.38786316 C34.32191706 41.9120922 34.32378418 43.43632408 34.32452393 44.96055603 C34.32912886 48.1717848 34.34352199 51.38276316 34.36572266 54.59391785 C34.39334233 58.59817491 34.4047908 62.60223232 34.40952301 66.60657501 C34.4326242 84.27520014 34.68045123 101.92605058 35.30389404 119.58421326 C35.6308125 129.1436926 35.69839979 138.68381881 35.64697266 148.24723816 C34.25478516 147.04067566 34.25478516 147.04067566 32.83447266 145.80973816 C25.95108564 139.92732176 18.98311628 134.20146901 11.72119141 128.7931366 C10.33838482 127.76254204 8.95945894 126.72671996 7.58447266 125.68571472 C4.51057715 123.35964312 1.4392736 121.08519189 -1.78662109 118.97380066 C-8.98172615 113.94003405 -8.98172615 113.94003405 -9.99755859 109.3087616 C-10.03236328 108.21080261 -10.06716797 107.11284363 -10.10302734 105.98161316 C-10.17831665 104.12560486 -10.17831665 104.12560486 -10.25512695 102.23210144 C-10.28743408 100.91709656 -10.31974121 99.60209167 -10.35302734 98.24723816 C-10.4035315 96.89933055 -10.45636482 95.55150829 -10.51147461 94.20378113 C-10.67384849 90.09396205 -10.79696998 85.98351719 -10.91552734 81.87223816 C-10.95888589 80.44254271 -11.0025045 79.01285513 -11.04638672 77.58317566 C-11.15158237 74.1379481 -11.25331427 70.69262928 -11.35302734 67.24723816 C-11.80033203 68.34680847 -12.24763672 69.44637878 -12.70849609 70.57926941 C-15.7793809 78.09931686 -18.87470583 85.58721799 -22.31005859 92.95036316 C-23.40207635 95.3552562 -24.38953354 97.7883671 -25.35302734 100.24723816 C-31.89848189 97.8836018 -31.89848189 97.8836018 -34.35302734 95.24723816 C-35.26879113 88.17714783 -32.52194726 81.90843408 -30.22802734 75.30973816 C-29.65955078 73.6265448 -29.65955078 73.6265448 -29.07958984 71.90934753 C-26.97673286 65.73746229 -24.75217876 59.62204759 -22.43505859 53.52848816 C-19.07355517 44.66978092 -16.11429162 35.68755306 -13.16552734 26.68473816 C-12.13396276 23.53640688 -11.09820774 20.38949722 -10.06005859 17.24333191 C-9.83187943 16.54219772 -9.60370026 15.84106354 -9.36860657 15.11868286 C-4.53614813 0.47662383 -4.53614813 0.47662383 0 0 Z " fill="#CAE2DD" transform="translate(624.35302734375,298.7527618408203)"/>
<path d="M0 0 C4.1068075 2.18485785 7.79007107 5.11005712 9.83203125 9.31640625 C10.60142036 14.25222255 10.56106756 19.18054661 10.53125 24.1640625 C10.53716398 25.62325115 10.54441282 27.08243495 10.55293274 28.54161072 C10.56478609 31.59220766 10.55814949 34.6420737 10.53881836 37.69262695 C10.51590414 41.59608964 10.54274806 45.4973795 10.58388042 49.40062809 C10.60948804 52.41111456 10.60687147 55.42108276 10.59598732 58.43163872 C10.59450375 59.87051813 10.60215483 61.30943787 10.6192379 62.74821663 C10.73080125 73.96140149 10.73080125 73.96140149 8.52363586 77.28897095 C6.92382812 78.65307617 6.92382812 78.65307617 3.83203125 80.31640625 C3.09597656 80.7546875 2.35992188 81.19296875 1.6015625 81.64453125 C0.95574219 81.94875 0.30992187 82.25296875 -0.35546875 82.56640625 C-1.00902344 82.8809375 -1.66257812 83.19546875 -2.3359375 83.51953125 C-7.84802483 85.91711295 -13.24675495 85.86685109 -19.16796875 85.31640625 C-26.90128335 81.73616801 -31.28411819 74.94148158 -34.30859375 67.234375 C-36.59805805 59.46060304 -37.5326545 51.97142483 -37.48046875 43.87890625 C-37.4748291 42.95730713 -37.46918945 42.03570801 -37.46337891 41.08618164 C-37.22357992 27.65625138 -32.87574716 14.02418466 -23.16796875 4.31640625 C-16.24850278 -0.80399857 -8.45782537 -2.66688187 0 0 Z " fill="#F6F7F6" transform="translate(511.16796875,600.68359375)"/>
<path d="M0 0 C0.93767212 -0.00315216 1.87534424 -0.00630432 2.84143066 -0.009552 C3.86119995 -0.00752777 4.88096924 -0.00550354 5.93164062 -0.00341797 C7.49078186 -0.00485306 7.49078186 -0.00485306 9.0814209 -0.00631714 C11.28393616 -0.0069991 13.48645342 -0.00514374 15.68896484 -0.00097656 C19.07328782 0.00437146 22.45747806 -0.00092105 25.84179688 -0.00732422 C27.97591175 -0.00666344 30.11002655 -0.00538228 32.24414062 -0.00341797 C33.26390991 -0.0054422 34.2836792 -0.00746643 35.33435059 -0.009552 C36.74085876 -0.00482376 36.74085876 -0.00482376 38.17578125 0 C39.42035095 0.00119339 39.42035095 0.00119339 40.69006348 0.00241089 C42.58789062 0.12939453 42.58789062 0.12939453 43.58789062 1.12939453 C43.62852895 2.79556568 43.63061163 4.46327548 43.58789062 6.12939453 C41.60789062 6.78939453 39.62789062 7.44939453 37.58789062 8.12939453 C36.39656105 11.57901368 36.52611193 12.97747675 37.92382812 16.41455078 C38.59115572 17.68025948 39.27178097 18.93901302 39.96289062 20.19189453 C40.70763931 21.60523012 41.44833761 23.02070546 42.18554688 24.43798828 C42.77360107 25.56696533 42.77360107 25.56696533 43.37353516 26.71875 C45.94602088 31.82544965 48.21329158 37.07481765 50.52880859 42.30151367 C50.88475098 43.10322998 51.24069336 43.90494629 51.60742188 44.73095703 C51.91784424 45.43559082 52.2282666 46.14022461 52.5480957 46.86621094 C53.82915309 49.65451851 55.20472537 52.39054576 56.58789062 55.12939453 C58.17744552 50.90254099 59.7583469 46.6724983 61.33789062 42.44189453 C62.00304687 40.67362305 62.00304687 40.67362305 62.68164062 38.86962891 C68.54880696 24.88380099 68.54880696 24.88380099 70.58789062 10.12939453 C68.27789063 8.80939453 65.96789062 7.48939453 63.58789062 6.12939453 C63.91789063 4.14939453 64.24789062 2.16939453 64.58789062 0.12939453 C74.15789062 0.12939453 83.72789062 0.12939453 93.58789062 0.12939453 C94.08289063 2.60439453 94.08289063 2.60439453 94.58789062 5.12939453 C92.89518229 5.71533203 91.20247396 6.30126953 89.50976562 6.88720703 C84.52859373 10.10674497 82.58205316 16.19442495 80.70507812 21.57080078 C80.44912369 22.28343582 80.19316925 22.99607086 79.92945862 23.7303009 C79.099422 26.04811625 78.28118526 28.36991087 77.46289062 30.69189453 C76.88810131 32.30166458 76.31265494 33.91120016 75.73657227 35.52050781 C72.98125153 43.24055142 70.28306431 50.97864307 67.65429688 58.74267578 C67.42810669 59.40846146 67.2019165 60.07424713 66.96887207 60.76020813 C65.91157743 63.874747 64.86472212 66.99203696 63.83544922 70.1159668 C59.42142448 83.24037196 59.42142448 83.24037196 53.58789062 87.12939453 C51.28320312 87.43017578 51.28320312 87.43017578 48.71289062 87.44189453 C47.86984375 87.45865234 47.02679687 87.47541016 46.15820312 87.49267578 C42.95102053 87.03938098 41.21545885 86.01732029 38.58789062 84.12939453 C37.33325195 81.95849609 37.33325195 81.95849609 36.35742188 79.27001953 C35.94443848 78.19816406 35.53145508 77.12630859 35.10595703 76.02197266 C34.8718512 75.41071533 34.63774536 74.79945801 34.39654541 74.16967773 C32.78492651 70.10346922 30.99068233 66.11467636 29.22460938 62.11376953 C28.82605743 61.20800171 28.42750549 60.30223389 28.01687622 59.36901855 C27.1895389 57.48947608 26.36139173 55.61028988 25.5324707 53.73144531 C24.28485628 50.90087011 23.04278639 48.06790331 21.80078125 45.23486328 C18.08288722 36.78392096 14.31699188 28.36373819 10.23242188 20.08251953 C9.76638802 19.12620636 9.76638802 19.12620636 9.29093933 18.15057373 C6.07597617 11.68015221 6.07597617 11.68015221 0.70117188 7.12548828 C0.10691406 6.94115234 -0.48734375 6.75681641 -1.09960938 6.56689453 C-4.41210938 5.12939453 -4.41210938 5.12939453 -5.41210938 3.00439453 C-5.41210938 -0.69925439 -3.10624762 0.00297851 0 0 Z " fill="#349592" transform="translate(492.412109375,255.87060546875)"/>
<path d="M0 0 C0.33 0 0.66 0 1 0 C1.33 13.2 1.66 26.4 2 40 C-3.34522401 34.65477599 -2.18104961 24.88600244 -2.1875 17.8125 C-2.18830566 16.95736816 -2.18911133 16.10223633 -2.18994141 15.22119141 C-2.0750499 2.0750499 -2.0750499 2.0750499 0 0 Z " fill="#2F8D8A" transform="translate(446,630)"/>
<path d="M0 0 C0 7.92 0 15.84 0 24 C-0.33 24 -0.66 24 -1 24 C-1.33 18.39 -1.66 12.78 -2 7 C-2.99 8.485 -2.99 8.485 -4 10 C-4 7.69 -4 5.38 -4 3 C-4.33 3.99 -4.66 4.98 -5 6 C-6.98 6.33 -8.96 6.66 -11 7 C-11 7.66 -11 8.32 -11 9 C-12.65 9.33 -14.3 9.66 -16 10 C-16 8.68 -16 7.36 -16 6 C-14.02 5.67 -12.04 5.34 -10 5 C-10.33 4.01 -10.66 3.02 -11 2 C-6.9402698 0.48940272 -4.45389333 0 0 0 Z " fill="#2F8C89" transform="translate(549,537)"/>
<path d="M0 0 C0.33 0 0.66 0 1 0 C1.94128087 4.76015177 2.14613702 9.37979821 2.1328125 14.21484375 C2.13376923 14.98880997 2.13472595 15.76277618 2.13571167 16.56019592 C2.1363892 18.18978965 2.13456483 19.81938614 2.13037109 21.44897461 C2.1250241 23.92633204 2.13032685 26.40350758 2.13671875 28.88085938 C2.13605775 30.47135456 2.13477614 32.06184964 2.1328125 33.65234375 C2.13483673 34.38484848 2.13686096 35.11735321 2.13894653 35.87205505 C2.11882699 40.34543971 1.72889861 44.58498803 1 49 C0.67 49 0.34 49 0 49 C0 41.74 0 34.48 0 27 C-0.33 27 -0.66 27 -1 27 C-1.02913821 23.4375173 -1.04684529 19.87506546 -1.0625 16.3125 C-1.07087891 15.30509766 -1.07925781 14.29769531 -1.08789062 13.25976562 C-1.09111328 12.28330078 -1.09433594 11.30683594 -1.09765625 10.30078125 C-1.10289307 9.40528564 -1.10812988 8.50979004 -1.11352539 7.5871582 C-0.99840198 4.96358241 -0.58234285 2.55706947 0 0 Z " fill="#258684" transform="translate(706,570)"/>
<path d="M0 0 C4.23099294 3.84296537 6.86099119 7.8008004 9.5625 12.8125 C9.93568359 13.48603516 10.30886719 14.15957031 10.69335938 14.85351562 C11.81522553 16.89238542 12.90929903 18.94431749 14 21 C14.39687012 21.7223584 14.79374023 22.4447168 15.20263672 23.18896484 C15.57791504 23.89359863 15.95319336 24.59823242 16.33984375 25.32421875 C16.68265381 25.95803467 17.02546387 26.59185059 17.37866211 27.24487305 C18 29 18 29 17 32 C16.67725098 31.36908447 16.35450195 30.73816895 16.02197266 30.08813477 C14.56233228 27.24312193 13.09380082 24.40279358 11.625 21.5625 C11.11710938 20.56927734 10.60921875 19.57605469 10.0859375 18.55273438 C9.59609375 17.60849609 9.10625 16.66425781 8.6015625 15.69140625 C8.15119629 14.81685791 7.70083008 13.94230957 7.23681641 13.04125977 C6.1626678 10.85916106 6.1626678 10.85916106 4 10 C4 10.66 4 11.32 4 12 C3.34 12 2.68 12 2 12 C1.67 12.66 1.34 13.32 1 14 C1 13.34 1 12.68 1 12 C0.34 12 -0.32 12 -1 12 C-0.67 10.68 -0.34 9.36 0 8 C0.66 8 1.32 8 2 8 C1.47731534 5.23723823 0.89130413 2.6739124 0 0 Z " fill="#2E8B87" transform="translate(676,489)"/>
<path d="M0 0 C-0.33 0.763125 -0.66 1.52625 -1 2.3125 C-2.17436686 4.99069135 -2.17436686 4.99069135 -2 8 C-4.88373938 8.82392554 -6.45972311 9.2220316 -9.28125 8.0625 C-12.37145472 6.85483379 -15.00921064 6.5927993 -18.3125 6.375 C-19.38113281 6.30023437 -20.44976562 6.22546875 -21.55078125 6.1484375 C-22.35902344 6.09945312 -23.16726563 6.05046875 -24 6 C-24 5.67 -24 5.34 -24 5 C-23.13117188 4.89042969 -22.26234375 4.78085937 -21.3671875 4.66796875 C-14.23240118 3.68633708 -6.89458081 -0.60834537 0 0 Z " fill="#3D9895" transform="translate(518,681)"/>
<path d="M0 0 C6.45810245 0.99681713 12.76571832 2.01636492 19 4 C18.67 4.99 18.34 5.98 18 7 C17.34 7 16.68 7 16 7 C16 7.66 16 8.32 16 9 C13.42786866 10.61949011 12.32330841 11.04408751 9.25 10.625 C8.13625 10.315625 8.13625 10.315625 7 10 C7.99 9.67 8.98 9.34 10 9 C11.21869929 6.49552484 11.21869929 6.49552484 12 4 C6.42169984 3.87530901 6.42169984 3.87530901 1 5 C1.33 4.01 1.66 3.02 2 2 C1.34 1.34 0.68 0.68 0 0 Z " fill="#308E8B" transform="translate(434,806)"/>
<path d="M0 0 C1.91635217 -0.05423638 3.83314925 -0.09289963 5.75 -0.125 C7.35101562 -0.15980469 7.35101562 -0.15980469 8.984375 -0.1953125 C11.92470106 -0.00487687 13.52361878 0.47329896 16 2 C14.906875 2.12375 13.81375 2.2475 12.6875 2.375 C8.92618198 2.75464801 8.92618198 2.75464801 6 5 C2.64453125 4.9765625 2.64453125 4.9765625 -1.1875 4.625 C-2.45980469 4.51414062 -3.73210938 4.40328125 -5.04296875 4.2890625 C-6.01878906 4.19367188 -6.99460937 4.09828125 -8 4 C-8 4.66 -8 5.32 -8 6 C-10 5 -10 5 -11 2 C-5.555 1.505 -5.555 1.505 0 1 C0 0.67 0 0.34 0 0 Z " fill="#318D8A" transform="translate(545,123)"/>
<path d="M0 0 C2.78515317 1.30962048 5.22424586 2.80278862 7.7746582 4.52392578 C8.70600586 5.14912109 9.63735352 5.77431641 10.59692383 6.41845703 C11.55663086 7.06943359 12.51633789 7.72041016 13.50512695 8.39111328 C14.48416992 9.04982422 15.46321289 9.70853516 16.47192383 10.38720703 C18.88166042 12.00937118 21.2884119 13.63578174 23.69262695 15.26611328 C23.03262695 15.59611328 22.37262695 15.92611328 21.69262695 16.26611328 C15.17834124 13.75182757 15.17834124 13.75182757 13.69262695 12.26611328 C13.36262695 13.25611328 13.03262695 14.24611328 12.69262695 15.26611328 C12.03262695 14.93611328 11.37262695 14.60611328 10.69262695 14.26611328 C10.83571289 13.14849609 10.83571289 13.14849609 10.98168945 12.00830078 C10.96141606 9.12475092 10.96141606 9.12475092 8.71606445 7.21142578 C7.40508789 6.31037109 7.40508789 6.31037109 6.06762695 5.39111328 C5.20911133 4.77494141 4.3505957 4.15876953 3.46606445 3.52392578 C0.07616997 1.98653701 -1.76235019 2.34087271 -5.30737305 3.26611328 C-4.97737305 2.27611328 -4.64737305 1.28611328 -4.30737305 0.26611328 C-2.30737305 -0.73388672 -2.30737305 -0.73388672 0 0 Z " fill="#318B88" transform="translate(540.307373046875,375.73388671875)"/>
<path d="M0 0 C3 1 3 1 4 3 C4.66 2.34 5.32 1.68 6 1 C5.71758359 2.46015291 5.42373386 3.91809793 5.125 5.375 C4.96257813 6.18710937 4.80015625 6.99921875 4.6328125 7.8359375 C4 10 4 10 2 12 C2 10.35 2 8.7 2 7 C1.67 7.99 1.34 8.98 1 10 C0.34 10 -0.32 10 -1 10 C-3.43160605 6.63316085 -4 5.26649636 -4 1 C-3.01 1 -2.02 1 -1 1 C-0.67 0.67 -0.34 0.34 0 0 Z " fill="#318F8C" transform="translate(564,282)"/>
<path d="M0 0 C0.71484375 1.578125 0.71484375 1.578125 1 4 C-0.05709499 6.38494456 -1.1317889 8.51234067 -2.4375 10.75 C-2.77587891 11.35199219 -3.11425781 11.95398438 -3.46289062 12.57421875 C-4.29768265 14.05568065 -5.14741494 15.52870608 -6 17 C-4.68 17.66 -3.36 18.32 -2 19 C-2.33 20.32 -2.66 21.64 -3 23 C-3.99 23 -4.98 23 -6 23 C-6 22.34 -6 21.68 -6 21 C-9.0745356 21.7763932 -9.0745356 21.7763932 -11 24 C-10.3768443 19.11062454 -8.28672194 15.19747025 -6.0625 10.875 C-5.70220703 10.15957031 -5.34191406 9.44414063 -4.97070312 8.70703125 C-3.43066268 5.67232909 -1.89255759 2.83883639 0 0 Z " fill="#30928F" transform="translate(619,716)"/>
<path d="M0 0 C2.15377564 2.62198774 3.40072174 4.64404172 4 8 C6.31 8.33 8.62 8.66 11 9 C10 12 10 12 9 13 C9.99 13 10.98 13 12 13 C12.33 12.34 12.66 11.68 13 11 C12.38722388 13.96175123 11.74627478 15.38058783 10 18 C5.28632476 12.97207975 0 7.22340301 0 0 Z " fill="#2B8C89" transform="translate(448,671)"/>
<path d="M0 0 C5.26621606 0.59578777 9.94408019 1.81308796 14.9375 3.5625 C15.96327148 3.91344727 15.96327148 3.91344727 17.00976562 4.27148438 C18.67508501 4.84211829 20.33782493 5.42027098 22 6 C21.67 6.66 21.34 7.32 21 8 C18.03 7.505 18.03 7.505 15 7 C14.67 7.66 14.34 8.32 14 9 C12.2925002 7.71937515 10.62626404 6.38232443 9 5 C9 4.34 9 3.68 9 3 C6.69 3 4.38 3 2 3 C2 2.34 2 1.68 2 1 C1.34 0.67 0.68 0.34 0 0 Z " fill="#2E8C8A" transform="translate(601,134)"/>
<path d="M0 0 C3.4160446 1.27108636 6.35706208 2.73394747 9.390625 4.75 C10.18210937 5.2759375 10.97359375 5.801875 11.7890625 6.34375 C13.00722656 7.16359375 13.00722656 7.16359375 14.25 8 C15.07757812 8.5465625 15.90515625 9.093125 16.7578125 9.65625 C17.54414062 10.1821875 18.33046875 10.708125 19.140625 11.25 C19.85766602 11.72953125 20.57470703 12.2090625 21.31347656 12.703125 C23 14 23 14 24 16 C19.32894208 14.44298069 15.91294315 11.91552627 12 9 C11.01 9.495 11.01 9.495 10 10 C10 9.01 10 8.02 10 7 C7.69 7 5.38 7 3 7 C3 5.68 3 4.36 3 3 C1.5833253 1.2488427 1.5833253 1.2488427 0 0 Z " fill="#2B8885" transform="translate(565,393)"/>
<path d="M0 0 C1.07447388 0.09958008 1.07447388 0.09958008 2.1706543 0.20117188 C2.8306543 1.19117187 3.4906543 2.18117188 4.1706543 3.20117188 C-0.28766493 3.23050886 -4.74595888 3.24808311 -9.2043457 3.26367188 C-10.45602539 3.27205078 -11.70770508 3.28042969 -12.99731445 3.2890625 C-20.0094158 3.30741879 -26.87167184 3.10158867 -33.8293457 2.20117188 C-33.8293457 1.87117188 -33.8293457 1.54117188 -33.8293457 1.20117188 C-29.50605597 1.05771084 -25.18273244 0.91532828 -20.859375 0.77392578 C-19.3899643 0.72571656 -17.92056308 0.67721754 -16.45117188 0.62841797 C-14.33376478 0.55814845 -12.21632529 0.48893626 -10.09887695 0.41992188 C-8.82633057 0.37802734 -7.55378418 0.33613281 -6.24267578 0.29296875 C-4.16024655 0.23696465 -2.07793631 0.14774523 0 0 Z " fill="#309C9A" transform="translate(545.829345703125,121.798828125)"/>
<path d="M0 0 C0.99 0 1.98 0 3 0 C3.103125 1.093125 3.20625 2.18625 3.3125 3.3125 C3.97307727 6.85559629 4.2027092 7.93243723 7 10 C1.73691968 8.58795406 -1.7562988 6.31008693 -6 3 C-6 2.67 -6 2.34 -6 2 C-4 2 -2 2 0 2 C0 1.34 0 0.68 0 0 Z " fill="#308E8B" transform="translate(327,817)"/>
<path d="M0 0 C0.33 0 0.66 0 1 0 C1.309375 0.969375 1.61875 1.93875 1.9375 2.9375 C2.69523342 5.84065792 2.69523342 5.84065792 4 7 C6.01594582 7.23427778 8.038474 7.41336124 10.0625 7.5625 C11.71958984 7.68818359 11.71958984 7.68818359 13.41015625 7.81640625 C14.26480469 7.87699219 15.11945312 7.93757812 16 8 C16.33 9.65 16.66 11.3 17 13 C16.34 13 15.68 13 15 13 C15 12.01 15 11.02 15 10 C14.33613281 10.04640625 13.67226563 10.0928125 12.98828125 10.140625 C8.65943805 10.31757042 5.77803206 10.40457667 1.875 8.375 C-0.47815304 5.39433949 -0.42122669 3.70679491 0 0 Z " fill="#308987" transform="translate(546,676)"/>
<path d="M0 0 C5.75 0.75 5.75 0.75 8 3 C-0.08808989 4.60614551 -7.7574683 5.26305952 -16 5 C-16 4.67 -16 4.34 -16 4 C-8.08 3.505 -8.08 3.505 0 3 C0 2.01 0 1.02 0 0 Z " fill="#2A8784" transform="translate(485,849)"/>
<path d="M0 0 C2.11389144 2.74369391 4.04289423 5.52175859 5.8125 8.5 C6.27269531 9.2528125 6.73289062 10.005625 7.20703125 10.78125 C8 13 8 13 7.13671875 15.28125 C6.57404297 16.13203125 6.57404297 16.13203125 6 17 C3.96564469 13.27034861 3 11.33094958 3 7 C2.01 7.33 1.02 7.66 0 8 C0 5.36 0 2.72 0 0 Z " fill="#E9F2F2" transform="translate(608,572)"/>
<path d="M0 0 C0.66 0 1.32 0 2 0 C2 0.66 2 1.32 2 2 C2.66 2.33 3.32 2.66 4 3 C5.0703125 4.55859375 5.0703125 4.55859375 6.125 6.4375 C6.47820313 7.05496094 6.83140625 7.67242188 7.1953125 8.30859375 C8 10 8 10 8 12 C8.66 12.33 9.32 12.66 10 13 C11.1875 14.8125 11.1875 14.8125 12 17 C11.55078125 19.13671875 11.55078125 19.13671875 11 21 C9.34999614 18.06482399 7.70572568 15.12647526 6.0625 12.1875 C5.59392578 11.35412109 5.12535156 10.52074219 4.64257812 9.66210938 C3.9706543 8.45844727 3.9706543 8.45844727 3.28515625 7.23046875 C2.87144775 6.49207764 2.45773926 5.75368652 2.03149414 4.99291992 C1 3 1 3 0 0 Z " fill="#2D8885" transform="translate(605,566)"/>
<path d="M0 0 C0 0.66 0 1.32 0 2 C-1.65 2.33 -3.3 2.66 -5 3 C-5.33 3.99 -5.66 4.98 -6 6 C-9.375 6.125 -9.375 6.125 -13 6 C-13.66 5.34 -14.32 4.68 -15 4 C-12.87607494 3.3299166 -10.75082476 2.66403203 -8.625 2 C-7.44164062 1.62875 -6.25828125 1.2575 -5.0390625 0.875 C-2 0 -2 0 0 0 Z " fill="#E8F3F2" transform="translate(537,841)"/>
<path d="M0 0 C0.99 0.66 1.98 1.32 3 2 C1.4722133 5.43752007 -0.50181056 8.18953688 -3 11 C-3.66 11 -4.32 11 -5 11 C-5 10.01 -5 9.02 -5 8 C-4.34 8 -3.68 8 -3 8 C-3.0928125 6.8553125 -3.0928125 6.8553125 -3.1875 5.6875 C-3 3 -3 3 -1.5 1.1875 C-1.005 0.795625 -0.51 0.40375 0 0 Z " fill="#2C8F8B" transform="translate(643,763)"/>
<path d="M0 0 C2 1 2 1 3.125 3.8125 C4 7 4 7 4 11 C2.35 11.66 0.7 12.32 -1 13 C-0.67 11.35 -0.34 9.7 0 8 C-0.66 7.67 -1.32 7.34 -2 7 C-1.01 6.67 -0.02 6.34 1 6 C0.67 4.02 0.34 2.04 0 0 Z " fill="#308D8B" transform="translate(696,527)"/>
<path d="M0 0 C3.63046346 1.56194358 6.21193205 3.78965167 9.125 6.4375 C9.99382813 7.21996094 10.86265625 8.00242187 11.7578125 8.80859375 C14 11 14 11 16 14 C13.1557415 12.84122802 11.72152243 11.70724153 9.5625 9.4375 C6.8821463 6.88789526 5.60931917 6.30937021 2 6 C1.34 4.02 0.68 2.04 0 0 Z " fill="#2B8885" transform="translate(632,442)"/>
<path d="M0 0 C1.32 1.65 2.64 3.3 4 5 C3.34 5.66 2.68 6.32 2 7 C1.3574765 9.06874034 1.3574765 9.06874034 1 11 C0.01 11 -0.98 11 -2 11 C-2.33 11.66 -2.66 12.32 -3 13 C-2.45144652 8.428721 -1.58255197 4.32564205 0 0 Z " fill="#328F8C" transform="translate(564,269)"/>
<path d="M0 0 C1 2 1 2 0.75 4 C0 6 0 6 -3 8 C-3 8.33 -3 8.66 -3 9 C-4.98 9 -6.96 9 -9 9 C-8.06725891 7.87105124 -7.12859878 6.74699124 -6.1875 5.625 C-5.66542969 4.99851562 -5.14335937 4.37203125 -4.60546875 3.7265625 C-3 2 -3 2 0 0 Z " fill="#2E9390" transform="translate(307,640)"/>
<path d="M0 0 C2.92183307 1.32984963 5.08447758 2.82630723 7.4375 5 C10.14498434 7.39238918 12.49223168 8.9370399 16 10 C15.67 11.32 15.34 12.64 15 14 C12.68404334 12.04563141 10.37217632 10.08676589 8.0625 8.125 C7.40314453 7.56941406 6.74378906 7.01382813 6.06445312 6.44140625 C5.43603516 5.90644531 4.80761719 5.37148438 4.16015625 4.8203125 C3.57886963 4.32805176 2.99758301 3.83579102 2.39868164 3.32861328 C1 2 1 2 0 0 Z " fill="#328A87" transform="translate(555,514)"/>
<path d="M0 0 C0.33 0.99 0.66 1.98 1 3 C0.01 4.485 0.01 4.485 -1 6 C-1.66 5.67 -2.32 5.34 -3 5 C-2.67 6.65 -2.34 8.3 -2 10 C-5.77545388 8.90931332 -8.47043472 8.0916909 -11 5 C-8.69 5.33 -6.38 5.66 -4 6 C-3.8453125 5.071875 -3.8453125 5.071875 -3.6875 4.125 C-3 2 -3 2 0 0 Z " fill="#2D8D8A" transform="translate(584,173)"/>
<path d="M0 0 C0.33 0 0.66 0 1 0 C0.48914188 6.43681228 -0.72942897 11.95942424 -3 18 C-3.33 17.01 -3.66 16.02 -4 15 C-6.00016466 13.79117904 -6.00016466 13.79117904 -8 13 C-6.35 12.67 -4.7 12.34 -3 12 C-2.01 8.04 -1.02 4.08 0 0 Z " fill="#2E8784" transform="translate(699,659)"/>
<path d="M0 0 C0.7425 0.804375 1.485 1.60875 2.25 2.4375 C4.75304829 4.76988591 5.7180955 5.63534394 9 6 C9.12375 6.7425 9.2475 7.485 9.375 8.25 C9.95486701 10.80141485 10.73708739 12.7267573 12 15 C7.1252081 11.28587284 3.25463813 7.22819529 0 2 C0 1.34 0 0.68 0 0 Z " fill="#2C8784" transform="translate(387,380)"/>
<path d="M0 0 C0.99 0.99 1.98 1.98 3 3 C2.01 5.97 1.02 8.94 0 12 C-0.33 12 -0.66 12 -1 12 C-2 4.375 -2 4.375 -2 1 C-1.34 1.33 -0.68 1.66 0 2 C0 1.34 0 0.68 0 0 Z " fill="#2E8E8A" transform="translate(662,248)"/>
<path d="M0 0 C0.66 0 1.32 0 2 0 C0.68938409 4.23429756 -0.94356259 8.07407404 -3 12 C-3.99 11.67 -4.98 11.34 -6 11 C-6 10.34 -6 9.68 -6 9 C-5.34 9 -4.68 9 -4 9 C-3.67 7.35 -3.34 5.7 -3 4 C-2.34 4 -1.68 4 -1 4 C-0.67 2.68 -0.34 1.36 0 0 Z " fill="#E7F1F1" transform="translate(279,670)"/>
<path d="M0 0 C7.59 0 15.18 0 23 0 C23 0.33 23 0.66 23 1 C16.4 1 9.8 1 3 1 C2.67 1.99 2.34 2.98 2 4 C1.34 4 0.68 4 0 4 C0 2.68 0 1.36 0 0 Z " fill="#3F9B99" transform="translate(556,258)"/>
<path d="M0 0 C0.66 0 1.32 0 2 0 C2.33 2.64 2.66 5.28 3 8 C2.67 7.34 2.34 6.68 2 6 C1.67 7.65 1.34 9.3 1 11 C-1.26185454 8.73814546 -2.03921617 7.03016439 -3 4 C-2.67 3.01 -2.34 2.02 -2 1 C-1.67 1.66 -1.34 2.32 -1 3 C-0.67 2.01 -0.34 1.02 0 0 Z " fill="#318C89" transform="translate(621,588)"/>
<path d="M0 0 C1.17482324 3.47454806 1.06339535 3.8675142 -0.65234375 7.453125 C-1.40158685 8.72617522 -2.16382013 9.99165126 -2.9375 11.25 C-3.32357422 11.8996875 -3.70964844 12.549375 -4.10742188 13.21875 C-5.06058418 14.81912129 -6.02885924 16.4104742 -7 18 C-7.33 17.34 -7.66 16.68 -8 16 C-7.37915039 14.30419922 -7.37915039 14.30419922 -6.34765625 12.3046875 C-5.98349609 11.58925781 -5.61933594 10.87382813 -5.24414062 10.13671875 C-4.85419922 9.39035156 -4.46425781 8.64398437 -4.0625 7.875 C-3.67642578 7.12089844 -3.29035156 6.36679687 -2.89257812 5.58984375 C-1.93547868 3.72290903 -0.96863894 1.86097372 0 0 Z " fill="#2C8582" transform="translate(619,716)"/>
<path d="M0 0 C0.66 0.66 1.32 1.32 2 2 C0.02 5.96 -1.96 9.92 -4 14 C-4.66 13.67 -5.32 13.34 -6 13 C-5.67 11.35 -5.34 9.7 -5 8 C-4.34 8 -3.68 8 -3 8 C-2.690625 7.05125 -2.38125 6.1025 -2.0625 5.125 C-1 2 -1 2 0 0 Z " fill="#E5F0F0" transform="translate(374,218)"/>
<path d="M0 0 C0.33 0.99 0.66 1.98 1 3 C0.55269531 3.36351562 0.10539062 3.72703125 -0.35546875 4.1015625 C-4.38793652 7.4547873 -7.76004454 10.87642033 -11 15 C-11 10.66825307 -8.34177417 8.77646347 -5.5 5.8125 C-4.97535156 5.25369141 -4.45070313 4.69488281 -3.91015625 4.11914062 C-2.61338387 2.73984636 -1.30753741 1.36909356 0 0 Z " fill="#2A8583" transform="translate(407,177)"/>
<path d="M0 0 C0 3 0 3 -1.625 5.25 C-4 7 -4 7 -7.25 6.75 C-8.1575 6.5025 -9.065 6.255 -10 6 C-6.87567603 3.47650757 -3.61939504 1.72743854 0 0 Z " fill="#EAF4F3" transform="translate(571,825)"/>
<path d="M0 0 C0.66 0 1.32 0 2 0 C0.68938409 4.23429756 -0.94356259 8.07407404 -3 12 C-3.66 12 -4.32 12 -5 12 C-4.38331854 5.46317657 -4.38331854 5.46317657 -2.5 3.1875 C-2.005 2.795625 -1.51 2.40375 -1 2 C-0.67 1.34 -0.34 0.68 0 0 Z " fill="#E6F3F2" transform="translate(615,720)"/>
<path d="M0 0 C3.81684226 1.55500981 6.19195732 4.03595495 9 7 C6.03 6.505 6.03 6.505 3 6 C3 6.66 3 7.32 3 8 C2.01 7.67 1.02 7.34 0 7 C0 6.34 0 5.68 0 5 C0.66 5 1.32 5 2 5 C2 4.01 2 3.02 2 2 C1.34 2 0.68 2 0 2 C0 1.34 0 0.68 0 0 Z " fill="#2F8D8A" transform="translate(610,424)"/>
<path d="M0 0 C1.98 0 3.96 0 6 0 C5.62875 0.5775 5.2575 1.155 4.875 1.75 C3.70833333 4 3.70833333 4 4.875 6.25 C5.24625 6.8275 5.6175 7.405 6 8 C2.535 6.02 2.535 6.02 -1 4 C-0.67 2.68 -0.34 1.36 0 0 Z " fill="#338F8C" transform="translate(559,259)"/>
<path d="M0 0 C1.305239 3.91571701 0.32239848 5.03892997 -1.4375 8.6875 C-1.91058594 9.68136719 -2.38367188 10.67523438 -2.87109375 11.69921875 C-3.42990234 12.83810547 -3.42990234 12.83810547 -4 14 C-4.33 14 -4.66 14 -5 14 C-5 12.35 -5 10.7 -5 9 C-4.34 9 -3.68 9 -3 9 C-3.0928125 7.6078125 -3.0928125 7.6078125 -3.1875 6.1875 C-3 3 -3 3 -1.5 1.125 C-1.005 0.75375 -0.51 0.3825 0 0 Z " fill="#2F8986" transform="translate(670,236)"/>
<path d="M0 0 C5.94 1.485 5.94 1.485 12 3 C7.68087005 5.15956497 6.48099916 5.36378235 2 4 C1.34 2.68 0.68 1.36 0 0 Z M5 5 C7 6 7 6 7 6 Z " fill="#2D8C89" transform="translate(654,151)"/>
<path d="M0 0 C1.98 0 3.96 0 6 0 C5.67 2.31 5.34 4.62 5 7 C3.68 6.67 2.36 6.34 1 6 C0.67 4.02 0.34 2.04 0 0 Z " fill="#3D9B97" transform="translate(432,263)"/>
<path d="M0 0 C0.66 0.33 1.32 0.66 2 1 C2 5.28535967 -0.2516278 6.84942699 -3 10 C-3.33 10.66 -3.66 11.32 -4 12 C-4.66 11.67 -5.32 11.34 -6 11 C-4.02 7.37 -2.04 3.74 0 0 Z " fill="#E6F2F2" transform="translate(706,167)"/>
<path d="M0 0 C-0.33 0.99 -0.66 1.98 -1 3 C-2.75 3.625 -2.75 3.625 -5 4 C-5.9075 4.185625 -6.815 4.37125 -7.75 4.5625 C-8.4925 4.706875 -9.235 4.85125 -10 5 C-9 2 -9 2 -6.125 0.25 C-3 -1 -3 -1 0 0 Z " fill="#2D8C89" transform="translate(468,135)"/>
<path d="M0 0 C1.65 0.33 3.3 0.66 5 1 C3.75023244 4.65316671 3.32901247 5.78065836 0 8 C0.33 7.01 0.66 6.02 1 5 C0.34 4.34 -0.32 3.68 -1 3 C-0.67 2.01 -0.34 1.02 0 0 Z " fill="#2E8E8B" transform="translate(653,749)"/>
<path d="M0 0 C0 3.19610552 -0.54671542 4.41717626 -2 7.1875 C-2.37125 7.90292969 -2.7425 8.61835937 -3.125 9.35546875 C-3.558125 10.16951172 -3.558125 10.16951172 -4 11 C-4.99 10.67 -5.98 10.34 -7 10 C-6.02223933 8.51990357 -5.0427506 7.04094856 -4.0625 5.5625 C-3.51722656 4.73878906 -2.97195313 3.91507813 -2.41015625 3.06640625 C-1 1 -1 1 0 0 Z " fill="#2C8988" transform="translate(290,657)"/>
<path d="M0 0 C2 2 2 2 2.3125 4.375 C1.94561394 7.45684293 1.13570963 8.78214769 -1 11 C-1.66 11 -2.32 11 -3 11 C-2.01 7.37 -1.02 3.74 0 0 Z " fill="#E5F0EF" transform="translate(557,320)"/>
<path d="M0 0 C0.66 1.32 1.32 2.64 2 4 C2.99 4 3.98 4 5 4 C5 6.64 5 9.28 5 12 C1.94063363 8.24532309 0 4.91886939 0 0 Z " fill="#2C8A87" transform="translate(520,311)"/>
<path d="M0 0 C0.33 0 0.66 0 1 0 C1 3.63 1 7.26 1 11 C-0.32 11 -1.64 11 -3 11 C-3 9.35 -3 7.7 -3 6 C-2.34 5.67 -1.68 5.34 -1 5 C-0.34444881 2.47266765 -0.34444881 2.47266765 0 0 Z " fill="#3D9B99" transform="translate(360,266)"/>
<path d="M0 0 C0.5534764 2.07553648 1 3.84365964 1 6 C-1 7.625 -1 7.625 -3 9 C-3.75 6.75 -3.75 6.75 -4 4 C-2.0625 1.6875 -2.0625 1.6875 0 0 Z " fill="#2B8D8A" transform="translate(596,755)"/>
<path d="M0 0 C2.97 0.495 2.97 0.495 6 1 C6 1.66 6 2.32 6 3 C-0.28571429 5.42857143 -0.28571429 5.42857143 -4 4 C-3.01 3.34 -2.02 2.68 -1 2 C-0.67 1.34 -0.34 0.68 0 0 Z " fill="#3F9896" transform="translate(535,162)"/>
<path d="M0 0 C0.99 0.33 1.98 0.66 3 1 C2.67 3.97 2.34 6.94 2 10 C0.4375 8.375 0.4375 8.375 -1 6 C-0.6875 2.75 -0.6875 2.75 0 0 Z " fill="#2A8C88" transform="translate(699,648)"/>
<path d="M0 0 C0.99 0.33 1.98 0.66 3 1 C3 2.98 3 4.96 3 7 C1.02 7.99 1.02 7.99 -1 9 C-0.67 6.03 -0.34 3.06 0 0 Z " fill="#2D8885" transform="translate(376,631)"/>
<path d="M0 0 C0.66 0 1.32 0 2 0 C2 0.66 2 1.32 2 2 C2.928125 2.1546875 2.928125 2.1546875 3.875 2.3125 C6 3 6 3 8 6 C7.67 6.99 7.34 7.98 7 9 C5.82737096 7.88121617 4.66204862 6.75476949 3.5 5.625 C2.8503125 4.99851562 2.200625 4.37203125 1.53125 3.7265625 C0 2 0 2 0 0 Z " fill="#E0ECEB" transform="translate(649,455)"/>
<path d="M0 0 C0.33 0.66 0.66 1.32 1 2 C1.66 2 2.32 2 3 2 C4.17571451 5.67410785 4.07366746 9.16929183 4 13 C1.27835324 10.27835324 0.89427524 7.70485455 0 4 C0 2.68 0 1.36 0 0 Z " fill="#2D8884" transform="translate(361,326)"/>
<path d="M0 0 C1.65 0 3.3 0 5 0 C4.01 3.3 3.02 6.6 2 10 C1.67 10 1.34 10 1 10 C1.04125 8.88625 1.0825 7.7725 1.125 6.625 C1.41121859 2.95633975 1.41121859 2.95633975 -1 1 C-0.67 0.67 -0.34 0.34 0 0 Z " fill="#3B8E8C" transform="translate(544,537)"/>
<path d="M0 0 C2.1875 0.3125 2.1875 0.3125 4 1 C2.25 4.875 2.25 4.875 0 6 C-0.99 5.01 -1.98 4.02 -3 3 C-1.75 1.4375 -1.75 1.4375 0 0 Z " fill="#2C8F8B" transform="translate(573,778)"/>
<path d="M0 0 C0.66 0 1.32 0 2 0 C1.39305845 3.15330554 0.3583335 5.18888867 -1.5625 7.75 C-2.24505859 8.67039062 -2.24505859 8.67039062 -2.94140625 9.609375 C-3.29074219 10.06828125 -3.64007812 10.5271875 -4 11 C-4 7.80389448 -3.45328458 6.58282374 -2 3.8125 C-1.62875 3.09707031 -1.2575 2.38164063 -0.875 1.64453125 C-0.441875 0.83048828 -0.441875 0.83048828 0 0 Z " fill="#2C8986" transform="translate(667,734)"/>
<path d="M0 0 C0.66 0.33 1.32 0.66 2 1 C2 1.66 2 2.32 2 3 C1.34 3 0.68 3 0 3 C0 3.99 0 4.98 0 6 C-1.65 6 -3.3 6 -5 6 C-3.35 4.02 -1.7 2.04 0 0 Z " fill="#E7EFEE" transform="translate(645,767)"/>
<path d="M0 0 C2.29013653 3.4352048 2.17842973 4.985331 2 9 C1.01 9 0.02 9 -1 9 C-0.67 6.03 -0.34 3.06 0 0 Z " fill="#2D8E8A" transform="translate(348,713)"/>
<path d="M0 0 C1.65 0.33 3.3 0.66 5 1 C2.50494038 3.49505962 1.32671112 3.35948376 -2.125 3.625 C-3.03507813 3.69976563 -3.94515625 3.77453125 -4.8828125 3.8515625 C-5.93082031 3.92503906 -5.93082031 3.92503906 -7 4 C-7 3.67 -7 3.34 -7 3 C-3.535 2.505 -3.535 2.505 0 2 C0 1.34 0 0.68 0 0 Z " fill="#278884" transform="translate(539,693)"/>
<path d="M0 0 C2.45484649 2.13464912 3.68134222 3.70720291 4 7 C3.34 7.66 2.68 8.32 2 9 C0.14223235 5.86501708 -0.20140476 3.62528568 0 0 Z " fill="#E7F1EE" transform="translate(624,224)"/>
<path d="M0 0 C2.63840764 1.03937271 3.54887645 2.4663835 5.0625 4.8125 C-0.47596154 4.19711538 -0.47596154 4.19711538 -2.8125 2.25 C-3.18375 1.775625 -3.555 1.30125 -3.9375 0.8125 C-1.9375 -0.1875 -1.9375 -0.1875 0 0 Z " fill="#2E8C88" transform="translate(564.9375,172.1875)"/>
<path d="M0 0 C6.0546875 -0.1953125 6.0546875 -0.1953125 8 0 C8.66 0.66 9.32 1.32 10 2 C9.67 2.99 9.34 3.98 9 5 C9 4.34 9 3.68 9 3 C8.2575 3.061875 7.515 3.12375 6.75 3.1875 C3.54616994 2.96905704 2.35968744 2.09749995 0 0 Z " fill="#28817D" transform="translate(699,157)"/>
<path d="M0 0 C-1.09445838 0.86657116 -2.20097781 1.71792724 -3.3125 2.5625 C-3.92738281 3.03816406 -4.54226563 3.51382813 -5.17578125 4.00390625 C-5.77777344 4.33261719 -6.37976563 4.66132812 -7 5 C-7.99 4.67 -8.98 4.34 -10 4 C-9.34 4 -8.68 4 -8 4 C-8 3.01 -8 2.02 -8 1 C-2.25 -1.125 -2.25 -1.125 0 0 Z " fill="#288785" transform="translate(595,811)"/>
<path d="M0 0 C4.875 1.75 4.875 1.75 6 4 C4.68 4.33 3.36 4.66 2 5 C2 4.34 2 3.68 2 3 C1.01 3 0.02 3 -1 3 C-0.67 2.01 -0.34 1.02 0 0 Z " fill="#2E8D8B" transform="translate(593,412)"/>
<path d="M0 0 C0.66 0.33 1.32 0.66 2 1 C1.34 2.32 0.68 3.64 0 5 C-1.98 5 -3.96 5 -6 5 C-5.195625 4.360625 -4.39125 3.72125 -3.5625 3.0625 C-1.7249496 1.59396498 -1.7249496 1.59396498 0 0 Z " fill="#E3F0EF" transform="translate(595,810)"/>
<path d="M0 0 C5 2 5 2 10 4 C7.33438378 4.98726527 6.09873015 5.0275526 3.3125 4.25 C1 3 1 3 0 0 Z " fill="#E4F3F2" transform="translate(462,693)"/>
<path d="M0 0 C2.475 0.99 2.475 0.99 5 2 C4.67 2.66 4.34 3.32 4 4 C0.9375 4.625 0.9375 4.625 -2 5 C-2 4.01 -2 3.02 -2 2 C-1.34 2 -0.68 2 0 2 C0 1.34 0 0.68 0 0 Z " fill="#2E908D" transform="translate(628,693)"/>
<path d="M0 0 C1.65 0.33 3.3 0.66 5 1 C2.60490662 3.89932357 0.68754757 4.50168276 -3 5 C-2.01 3.35 -1.02 1.7 0 0 Z " fill="#318C89" transform="translate(509,689)"/>
<path d="M0 0 C0.99 0.495 0.99 0.495 2 1 C1.01 1.495 1.01 1.495 0 2 C0 1.34 0 0.68 0 0 Z M-1 4 C-3.3125 4.625 -3.3125 4.625 -6 5 C-6.99 4.34 -7.98 3.68 -9 3 C-5.59745511 1.7848054 -4.06748874 2.13759612 -1 4 Z " fill="#EBF1F0" transform="translate(564,688)"/>
<path d="M0 0 C0 0.99 0 1.98 0 3 C0.33 3.99 0.66 4.98 1 6 C-0.98 6 -2.96 6 -5 6 C-3.35 4.02 -1.7 2.04 0 0 Z " fill="#298785" transform="translate(303,643)"/>
<path d="M0 0 C1 3 1 3 0.22265625 4.82421875 C-0.8515625 6.54947917 -1.92578125 8.27473958 -3 10 C-4 7 -4 7 -4 5 C-3.02149805 3.97895449 -2.02019573 2.9793879 -1 2 C-0.67 1.34 -0.34 0.68 0 0 Z " fill="#348A87" transform="translate(677,221)"/>
<path d="M0 0 C-0.33 0.66 -0.66 1.32 -1 2 C-3.31 2 -5.62 2 -8 2 C-6.14210462 -1.71579076 -3.44525918 -1.06921837 0 0 Z " fill="#268E8C" transform="translate(535,164)"/>
<path d="M0 0 C0.66 0.33 1.32 0.66 2 1 C0.35 2.65 -1.3 4.3 -3 6 C-3.99 5.67 -4.98 5.34 -6 5 C-4.02 3.35 -2.04 1.7 0 0 Z " fill="#298785" transform="translate(429,157)"/>
</svg>
