<?xml version="1.0" encoding="UTF-8"?>
<svg version="1.1" xmlns="http://www.w3.org/2000/svg" width="80" height="92">
<path d="M0 0 C1.2065625 0.0309375 1.2065625 0.0309375 2.4375 0.0625 C2.32792969 0.75730469 2.21835937 1.45210937 2.10546875 2.16796875 C1.65453449 5.06054705 1.21352623 7.95450633 0.77587891 10.84912109 C0.53726218 12.40994309 0.29434434 13.9701105 0.04833984 15.52978516 C-3.300734 33.31455842 -3.300734 33.31455842 -1.5625 51.0625 C1.67939817 48.18854218 3.08136457 46.0187586 4.21875 41.8515625 C4.64607422 40.35496094 4.64607422 40.35496094 5.08203125 38.828125 C5.50548828 37.27351563 5.50548828 37.27351563 5.9375 35.6875 C9.51760766 22.6421762 9.51760766 22.6421762 13.4375 18.0625 C17.55721953 17.38989273 18.93562047 17.72791365 22.4375 20.0625 C22.625 22.6875 22.625 22.6875 22.4375 25.0625 C19.5 24.6875 19.5 24.6875 16.4375 24.0625 C15.9425 23.0725 15.9425 23.0725 15.4375 22.0625 C15.5498407 27.23017198 16.78855843 29.81618588 19.9375 33.9375 C23.31407968 38.51154711 25.18821336 42.29565648 24.4375 48.0625 C23 51.0625 23 51.0625 20.4375 53.0625 C16.38736332 54.41254556 13.46566862 54.53188132 9.5625 52.75 C7.4375 51.0625 7.4375 51.0625 5.4375 49.0625 C3.7875 50.7125 2.1375 52.3625 0.4375 54.0625 C-5.3125 52.4375 -5.3125 52.4375 -7.5625 49.0625 C-8.0575 49.7225 -8.5525 50.3825 -9.0625 51.0625 C-11.69310389 53.16698312 -12.40875894 53.4203457 -15.625 53.5625 C-19.5625 53.0625 -19.5625 53.0625 -21.5625 51.1875 C-22.5625 49.0625 -22.5625 49.0625 -22.5625 47.0625 C-23.408125 47.5575 -24.25375 48.0525 -25.125 48.5625 C-28.92062302 50.21877186 -31.48047421 50.0625 -35.5625 50.0625 C-36.036875 50.5575 -36.51125 51.0525 -37 51.5625 C-39.3270586 53.79647625 -41.50695747 53.470013 -44.625 53.55859375 C-47.43699914 52.83858591 -48.08012125 51.51468341 -49.5625 49.0625 C-49.91894531 46.45288086 -49.91894531 46.45288086 -49.890625 43.52734375 C-49.88546875 42.47095703 -49.8803125 41.41457031 -49.875 40.32617188 C-49.854375 39.22853516 -49.83375 38.13089844 -49.8125 37 C-49.80734375 35.89849609 -49.8021875 34.79699219 -49.796875 33.66210938 C-49.71736351 25.52709054 -49.71736351 25.52709054 -48.5625 22.0625 C-46.5825 22.0625 -44.6025 22.0625 -42.5625 22.0625 C-42.706875 22.94550781 -42.85125 23.82851563 -43 24.73828125 C-45.25314193 37.46498708 -45.25314193 37.46498708 -43.5625 50.0625 C-41.53008273 49.42270151 -41.53008273 49.42270151 -39.5625 48.0625 C-38.38438375 44.0800334 -38.55222728 40.30880876 -38.6875 36.1875 C-38.72774407 26.59934984 -38.72774407 26.59934984 -35.5625 22.0625 C-32.375 21.125 -32.375 21.125 -29.5625 21.0625 C-26.9976396 24.9097906 -26.89365555 27.62085338 -27.5625 32.0625 C-28.9458607 37.15240195 -30.75697168 42.11019374 -32.5625 47.0625 C-29.64732708 45.98848892 -27.78439824 45.28439824 -25.5625 43.0625 C-24.72651137 40.0993361 -24.09535055 37.11361251 -23.44140625 34.10546875 C-21.82848693 28.52118363 -19.24685511 25.42562674 -14.5625 22.0625 C-11.85370665 20.70810332 -9.55316732 20.99748549 -6.5625 21.0625 C-6.51351562 20.45664062 -6.46453125 19.85078125 -6.4140625 19.2265625 C-4.70870939 0.11484657 -4.70870939 0.11484657 0 0 Z M-32.5625 24.0625 C-36.26258051 29.61262076 -36.69008958 33.42784165 -36.5625 40.0625 C-35.9025 40.0625 -35.2425 40.0625 -34.5625 40.0625 C-31.93952057 32.24675703 -31.93952057 32.24675703 -31.5625 24.0625 C-31.8925 24.0625 -32.2225 24.0625 -32.5625 24.0625 Z M-14.1875 26.625 C-18.4909153 32.29226691 -19.45828688 39.1169061 -18.5625 46.0625 C-17.23079691 49.04234167 -17.23079691 49.04234167 -15.5625 51.0625 C-12.24954309 50.03434096 -11.5573959 49.05304796 -9.875 45.9375 C-7.19414305 38.87111075 -7.42522393 31.50591336 -7.5625 24.0625 C-11.69684764 23.59680885 -11.69684764 23.59680885 -14.1875 26.625 Z M11.4375 29.0625 C9.38387945 34.15190744 8.00570748 38.60770815 7.4375 44.0625 C8.0975 44.0625 8.7575 44.0625 9.4375 44.0625 C9.39625 44.84625 9.355 45.63 9.3125 46.4375 C9.15021266 49.22366119 9.15021266 49.22366119 11.4375 51.0625 C14.73464793 50.73278521 16.0601839 50.4398161 18.4375 48.0625 C19.02305601 43.01207939 17.642575 39.68952813 15.4375 35.1875 C14.880625 34.03507812 14.32375 32.88265625 13.75 31.6953125 C13.316875 30.82648437 12.88375 29.95765625 12.4375 29.0625 C12.1075 29.0625 11.7775 29.0625 11.4375 29.0625 Z M6.4375 44.0625 C7.4375 46.0625 7.4375 46.0625 7.4375 46.0625 Z " fill="#48895A" transform="translate(49.5625,17.9375)"/>
</svg>
